<?xml version="1.0" standalone="no"?>
<!DOCTYPE svg PUBLIC "-//W3C//DTD SVG 20010904//EN"
 "http://www.w3.org/TR/2001/REC-SVG-20010904/DTD/svg10.dtd">
<svg version="1.0" xmlns="http://www.w3.org/2000/svg"
 width="633.000000pt" height="394.000000pt" viewBox="0 0 633.000000 394.000000"
 preserveAspectRatio="xMidYMid meet">

<g transform="translate(0.000000,394.000000) scale(0.100000,-0.100000)"
fill="#000000" stroke="none">
<path d="M2503 3715 c-39 -17 -58 -52 -73 -135 -6 -36 -16 -81 -21 -100 -5
-19 -34 -152 -65 -295 -78 -368 -96 -453 -148 -690 -26 -115 -59 -273 -75
-350 l-28 -140 -199 -5 c-173 -4 -204 -8 -239 -25 -44 -22 -79 -68 -95 -124
-6 -21 -10 -182 -10 -384 0 -221 -4 -355 -10 -368 -8 -14 -21 -19 -50 -19 -70
0 -68 -14 -72 516 l-3 472 -27 27 c-16 15 -28 23 -28 17 0 -5 -8 -13 -17 -16
-12 -5 -26 3 -45 26 -15 18 -28 38 -28 45 0 6 -9 9 -20 6 -12 -3 -21 0 -22 8
-1 8 -4 -29 -7 -81 l-6 -95 -130 -5 c-137 -6 -169 -15 -211 -62 -50 -54 -54
-75 -54 -280 0 -219 -5 -238 -64 -238 -59 0 -66 19 -66 173 0 75 -4 138 -9
141 -4 3 -27 -3 -50 -14 -22 -11 -61 -23 -87 -27 -25 -3 -52 -12 -60 -20 -26
-26 -12 -250 20 -312 20 -39 84 -99 130 -123 29 -15 58 -20 115 -20 93 0 129
14 198 80 73 70 83 110 83 324 l0 168 90 0 90 0 0 -338 c0 -406 2 -416 88
-501 80 -79 167 -99 278 -66 67 20 117 64 151 133 l28 57 2 355 3 355 212 5
c283 7 287 9 328 204 11 50 33 156 50 236 17 80 51 242 76 360 73 349 80 379
87 386 4 4 9 5 11 3 3 -2 14 -74 26 -159 49 -365 81 -594 100 -720 11 -74 36
-258 55 -408 19 -150 42 -314 50 -365 8 -51 26 -180 40 -287 83 -636 78 -609
115 -643 41 -36 96 -37 139 -2 35 30 43 53 71 205 12 63 28 142 35 175 8 33
44 206 79 385 36 179 79 390 96 470 16 80 46 222 65 315 51 242 59 276 69 278
5 1 32 -67 58 -151 53 -167 82 -226 123 -257 25 -19 44 -20 511 -23 l484 -3 1
-337 c0 -185 4 -346 8 -357 5 -11 14 -20 22 -20 8 -1 13 -6 12 -12 -2 -7 6
-11 17 -10 10 1 17 4 14 9 -8 13 120 21 144 9 9 -4 -31 -61 -44 -61 -12 0 -15
-6 -10 -27 4 -18 3 -23 -2 -15 -8 11 -10 11 -15 -2 -4 -9 -1 -15 5 -13 7 1 14
-6 16 -17 2 -11 0 -16 -7 -12 -6 4 -11 3 -11 -3 0 -20 40 -31 107 -32 38 0 73
0 78 1 6 1 18 2 27 1 10 -1 25 2 34 7 15 8 14 12 -9 27 -15 9 -34 14 -43 11
-9 -4 -33 -3 -53 1 -32 6 -34 7 -12 13 32 7 51 37 32 49 -9 6 -10 10 -2 16 19
11 -7 35 -40 35 -30 0 -47 15 -27 23 7 3 5 6 -6 6 -11 1 -16 4 -13 8 4 3 0 14
-8 23 -8 9 -15 27 -14 41 0 13 3 165 5 337 6 357 1 402 -49 449 -63 60 -43 58
-556 63 l-475 5 -113 338 c-62 186 -120 349 -129 362 -9 14 -33 30 -54 36 -47
14 -101 -8 -120 -49 -15 -33 -49 -182 -95 -412 -29 -151 -44 -223 -85 -410 -4
-19 -35 -165 -68 -325 -80 -382 -92 -435 -102 -435 -10 0 -13 15 -35 190 -9
69 -32 233 -51 365 -43 297 -58 409 -90 650 -47 363 -74 561 -88 660 -8 55
-26 192 -41 305 -50 390 -57 420 -111 440 -33 13 -42 12 -81 -5z m2347 -2615
c0 -5 -4 -10 -10 -10 -5 0 -10 5 -10 10 0 6 5 10 10 10 6 0 10 -4 10 -10z
m-30 -10 c0 -5 -5 -10 -11 -10 -5 0 -7 5 -4 10 3 6 8 10 11 10 2 0 4 -4 4 -10z"/>
<path d="M4863 2898 c-38 -12 -42 -23 -13 -31 11 -3 20 -2 20 1 0 4 27 6 60 5
56 -1 83 8 61 21 -19 12 -97 14 -128 4z"/>
<path d="M1374 2885 c-4 -8 -3 -27 1 -43 7 -27 7 -27 16 -4 4 12 14 22 20 22
8 0 7 -5 -2 -16 -11 -14 -9 -19 11 -34 14 -10 28 -16 33 -13 5 3 3 9 -4 14
-11 7 -10 9 4 9 19 0 23 15 7 25 -5 3 -10 1 -10 -5 0 -6 -5 -8 -11 -4 -6 3 -9
19 -5 35 5 27 3 29 -25 29 -17 0 -32 -6 -35 -15z"/>
<path d="M1450 2884 c0 -8 5 -12 10 -9 6 3 10 10 10 16 0 5 -4 9 -10 9 -5 0
-10 -7 -10 -16z"/>
<path d="M4766 2838 c3 -5 10 -6 15 -3 13 9 11 12 -6 12 -8 0 -12 -4 -9 -9z"/>
<path d="M4742 2810 c-2 -25 1 -28 28 -26 16 1 32 -3 34 -8 3 -7 5 -6 5 1 1 6
-3 15 -9 18 -20 12 -10 22 18 17 15 -2 24 -1 20 3 -4 4 -23 9 -42 10 -19 2
-38 5 -43 8 -5 3 -10 -7 -11 -23z"/>
<path d="M4960 2830 c0 -5 5 -10 10 -10 6 0 10 5 10 10 0 6 -4 10 -10 10 -5 0
-10 -4 -10 -10z"/>
<path d="M4906 2821 c-14 -5 -16 -10 -7 -15 15 -9 41 -1 41 14 0 11 -7 12 -34
1z"/>
<path d="M1265 2740 c-3 -5 -8 -18 -10 -27 -2 -10 -7 -27 -11 -37 -4 -11 -4
-17 2 -14 5 4 9 -16 8 -45 -2 -116 20 -146 28 -39 3 37 7 74 9 82 2 8 -2 14
-9 12 -9 -1 -11 9 -7 38 5 40 2 49 -10 30z"/>
<path d="M5164 2675 c3 -8 1 -15 -4 -15 -6 0 -10 -12 -10 -26 0 -16 5 -24 13
-22 16 6 22 78 7 78 -7 0 -10 -7 -6 -15z"/>
<path d="M1357 2635 c-8 -51 -3 -343 6 -351 4 -4 10 7 13 25 4 17 10 34 15 37
5 3 6 -2 3 -10 -3 -9 -1 -16 5 -16 14 0 15 67 1 72 -6 2 -13 52 -16 115 -3 62
-9 125 -13 140 -8 27 -8 27 -14 -12z"/>
<path d="M1308 2655 c-6 -10 -2 -135 6 -142 7 -7 11 70 6 112 -3 22 -8 36 -12
30z"/>
<path d="M4699 2653 c-6 -34 -5 -53 2 -53 5 0 9 14 9 30 0 27 -8 42 -11 23z"/>
<path d="M4652 2610 c0 -19 2 -27 5 -17 2 9 2 25 0 35 -3 9 -5 1 -5 -18z"/>
<path d="M5132 2620 c0 -14 2 -19 5 -12 2 6 2 18 0 25 -3 6 -5 1 -5 -13z"/>
<path d="M1701 2614 c0 -11 3 -14 6 -6 3 7 2 16 -1 19 -3 4 -6 -2 -5 -13z"/>
<path d="M5178 2540 c2 -22 6 -40 8 -40 2 0 4 18 4 40 0 22 -3 40 -8 40 -4 0
-6 -18 -4 -40z"/>
<path d="M660 2563 c-18 -8 -40 -35 -34 -44 2 -4 14 -5 27 -2 12 3 19 3 16 -1
-10 -11 38 -55 66 -62 14 -3 40 -3 58 0 29 5 34 12 47 54 13 43 14 45 21 22
l8 -25 -2 25 c-2 23 -6 25 -62 25 -33 1 -76 4 -95 8 -19 3 -42 3 -50 0z"/>
<path d="M5565 2550 c-18 -19 -17 -20 4 -20 13 0 19 -4 16 -10 -4 -7 3 -9 22
-5 15 3 22 2 15 -1 -10 -5 -10 -9 -1 -20 9 -11 8 -15 -5 -20 -29 -11 -17 -24
22 -24 45 0 67 13 59 33 -3 9 -1 18 6 21 7 4 0 4 -15 1 -16 -3 -28 -1 -28 5 0
9 40 14 103 13 18 0 18 1 0 17 -19 19 -73 35 -73 23 0 -12 -58 -14 -65 -3 -10
16 -41 11 -60 -10z"/>
<path d="M1261 2484 c0 -11 3 -14 6 -6 3 7 2 16 -1 19 -3 4 -6 -2 -5 -13z"/>
<path d="M4994 2413 c1 -48 5 -78 10 -73 5 5 5 39 -1 82 l-10 73 1 -82z"/>
<path d="M574 2469 c-3 -6 -1 -16 5 -22 8 -8 11 -5 11 11 0 24 -5 28 -16 11z"/>
<path d="M5420 2424 c0 -12 -5 -24 -11 -26 -9 -3 -9 -17 1 -56 13 -54 26 -67
32 -30 2 18 6 15 23 -20 12 -25 27 -42 38 -42 15 0 17 -11 16 -107 -1 -60 -3
-99 -6 -88 -2 11 -6 30 -9 42 -2 13 -18 30 -34 38 -18 9 -30 24 -30 35 0 34
-19 31 -26 -5 -6 -36 -18 -45 -27 -22 -5 12 -12 -128 -8 -170 1 -13 -4 -23
-11 -23 -28 1 -109 27 -120 38 -7 7 -22 12 -35 12 -20 0 -23 5 -23 38 0 31 -4
38 -20 39 -12 1 -20 -5 -21 -15 0 -14 -2 -13 -9 3 -8 18 -9 18 -10 -5 -1 -14
-4 -20 -6 -14 -4 9 -13 8 -33 -2 -29 -14 -60 -66 -62 -101 0 -16 -1 -16 -9 2
-6 15 -9 6 -9 -32 -1 -29 -4 -53 -8 -53 -5 0 -9 -111 -11 -246 -2 -207 0 -248
13 -260 13 -14 15 -12 15 19 0 27 4 34 18 33 22 -1 25 45 4 87 -19 38 -29 143
-21 217 3 30 6 49 7 43 3 -17 27 -16 41 1 10 11 8 15 -6 18 -13 3 -10 6 10 10
22 4 27 2 27 -13 0 -21 20 -27 21 -6 0 6 4 3 9 -8 8 -18 9 -18 9 -2 1 10 6 15
11 12 6 -3 10 -1 10 5 0 6 4 9 9 6 4 -3 16 3 26 14 10 11 14 20 9 20 -26 2 77
30 108 30 20 0 43 3 52 6 23 9 -3 31 -31 26 -13 -2 -23 1 -23 7 0 6 11 11 25
11 26 0 34 15 13 23 -7 2 -3 2 10 0 12 -2 35 3 52 12 l29 15 12 -41 c13 -41
39 -64 47 -41 7 23 22 1 22 -34 l0 -34 -25 16 c-20 13 -28 14 -40 4 -13 -10
-15 -9 -15 10 0 28 -24 21 -28 -9 -2 -15 -9 -21 -18 -17 -8 3 -14 1 -14 -3 0
-5 6 -11 13 -14 10 -3 10 -9 0 -26 -18 -30 -16 -49 9 -83 24 -34 25 -62 5
-155 -10 -44 -10 -63 -3 -63 6 0 5 -4 -2 -9 -15 -9 -8 -54 14 -84 12 -18 13
-18 23 2 7 12 18 21 25 21 7 0 30 15 50 34 31 30 36 41 36 81 0 25 4 44 9 41
5 -4 7 3 4 14 -3 11 0 20 6 20 6 0 11 4 11 10 0 5 -8 6 -17 3 -17 -7 -17 -5 0
21 10 15 16 30 13 34 -3 3 -6 -1 -6 -9 -1 -10 -4 -9 -11 4 -11 19 -13 411 -2
617 l5 115 -52 -4 -53 -3 6 40 c6 37 5 40 -18 44 -21 4 -25 1 -25 -18z m100
-759 c0 -29 -4 -35 -21 -35 -11 0 -17 -5 -14 -10 4 -6 11 -8 16 -5 5 4 9 -1 9
-10 0 -11 -5 -15 -15 -11 -8 3 -15 2 -15 -2 0 -4 -9 -8 -20 -9 -18 -2 -21 3
-19 43 3 40 8 49 25 42 3 -2 10 5 15 15 17 30 39 20 39 -18z"/>
<path d="M5834 2434 c3 -9 9 -26 12 -39 5 -20 3 -23 -14 -18 -11 2 -23 0 -26
-6 -4 -6 -16 -11 -26 -11 -21 0 -37 -40 -25 -59 3 -6 2 -11 -3 -11 -13 0 -3
-83 11 -92 9 -6 9 -10 -1 -17 -11 -7 -11 -9 1 -14 18 -7 37 11 37 34 0 9 7 22
15 29 8 7 15 22 15 34 0 27 17 53 27 42 4 -4 8 -69 8 -144 0 -137 9 -170 33
-117 16 35 15 90 -1 103 -17 14 -15 149 3 181 9 17 9 26 -1 37 -10 13 -10 17
0 23 10 6 9 12 -4 24 -8 9 -16 20 -16 24 -1 17 -7 14 -14 -8 -6 -16 -9 -18
-16 -8 -5 8 -3 16 4 21 8 5 6 8 -7 8 -12 0 -16 -5 -12 -16z"/>
<path d="M531 2433 c1 -4 1 -15 -1 -23 -1 -11 -4 -9 -9 5 -7 16 -11 12 -25
-27 -18 -47 -15 -73 9 -64 7 2 25 -2 40 -10 33 -17 44 -11 27 16 -7 11 -12 29
-12 39 0 11 -5 23 -11 26 -6 4 -8 13 -5 21 3 7 1 16 -5 19 -5 4 -9 3 -8 -2z"/>
<path d="M954 2411 c-3 -3 -12 -21 -19 -38 -8 -18 -19 -33 -24 -33 -6 0 -11
-11 -11 -25 0 -14 5 -25 10 -25 6 0 10 8 8 17 -4 21 29 30 45 14 9 -9 8 -14
-2 -20 -16 -10 -1 -43 21 -47 11 -1 13 8 8 48 -4 33 -3 47 4 45 6 -3 12 6 12
19 1 13 -2 24 -7 24 -5 0 -9 6 -9 13 0 14 -25 19 -36 8z"/>
<path d="M1595 2220 c2 -52 4 -99 4 -104 1 -5 8 -3 15 4 8 6 32 10 53 9 48 -4
63 5 58 33 -5 24 -25 49 -25 31 0 -7 -16 -12 -39 -11 -36 0 -40 3 -44 32 -3
17 -10 47 -16 66 -8 28 -9 16 -6 -60z"/>
<path d="M5573 2245 c0 -38 2 -53 4 -32 2 20 2 52 0 70 -2 17 -4 1 -4 -38z"/>
<path d="M5720 2240 c0 -40 2 -71 5 -68 7 7 9 128 1 135 -3 3 -6 -27 -6 -67z"/>
<path d="M4810 2280 c0 -11 7 -20 15 -20 13 0 14 4 5 20 -6 11 -13 20 -15 20
-3 0 -5 -9 -5 -20z"/>
<path d="M616 2253 c5 -18 3 -24 -5 -19 -12 8 -14 4 -5 -18 3 -8 12 -12 20 -9
9 3 14 -2 14 -16 0 -43 18 -19 22 28 1 27 0 47 -4 44 -5 -2 -8 0 -8 4 0 5 -9
9 -20 10 -17 2 -19 -2 -14 -24z"/>
<path d="M480 2121 c0 -44 3 -82 8 -84 11 -6 43 31 31 38 -5 4 -7 11 -3 16 7
12 -15 97 -27 105 -5 3 -9 -31 -9 -75z"/>
<path d="M820 2159 c0 -22 6 -47 14 -55 21 -20 28 -2 20 51 -8 59 -34 62 -34
4z"/>
<path d="M4720 2181 c-22 -6 -23 -8 -7 -14 27 -10 34 -9 34 8 0 8 -1 15 -1 14
-1 -1 -12 -4 -26 -8z"/>
<path d="M4691 2151 c-8 -5 -9 -11 -3 -15 5 -3 15 1 22 9 14 16 3 20 -19 6z"/>
<path d="M148 1946 c11 -18 12 -45 2 -51 -5 -3 -7 0 -4 8 6 15 -13 34 -23 23
-12 -12 -4 -71 11 -82 9 -6 14 -13 11 -16 -3 -2 2 -5 10 -5 8 0 15 4 15 9 0 4
9 8 20 8 11 0 20 5 20 11 0 5 -5 7 -10 4 -12 -7 -29 33 -32 74 -1 15 -8 28
-15 28 -6 0 -9 -5 -5 -11z"/>
<path d="M6236 1950 c-16 -5 -17 -8 -4 -12 16 -7 45 7 32 14 -5 3 -18 2 -28
-2z"/>
<path d="M6237 1913 c-2 -4 -1 -17 3 -27 6 -19 7 -19 14 -1 7 19 -8 44 -17 28z"/>
<path d="M5867 1773 c-4 -7 -3 -51 4 -183 1 -25 19 43 22 85 1 11 7 23 12 27
6 5 5 8 -3 8 -9 0 -11 7 -7 20 6 20 -19 58 -28 43z"/>
<path d="M5770 1641 c0 -11 -4 -23 -10 -26 -5 -3 -10 -23 -10 -43 0 -20 -7
-50 -15 -65 -13 -25 -13 -27 3 -25 10 2 16 -3 14 -10 -1 -7 7 -25 18 -39 11
-14 20 -31 20 -38 0 -7 9 -15 20 -18 11 -3 24 -16 29 -29 6 -12 10 -17 10 -9
1 8 4 11 7 8 4 -3 15 -2 25 4 21 11 47 87 33 97 -10 7 -14 21 -22 65 -5 32
-22 36 -29 7 -3 -11 -9 -17 -14 -14 -5 3 -7 10 -3 15 3 6 -5 20 -19 32 -16 14
-28 38 -32 65 -7 42 -25 59 -25 23z m94 -269 c3 -5 -1 -9 -9 -9 -8 0 -12 4 -9
9 3 4 7 8 9 8 2 0 6 -4 9 -8z"/>
<path d="M5723 1586 c0 -31 4 -56 9 -56 11 0 10 81 -1 99 -5 8 -8 -8 -8 -43z"/>
<path d="M5720 1430 c0 -5 5 -10 11 -10 5 0 7 5 4 10 -3 6 -8 10 -11 10 -2 0
-4 -4 -4 -10z"/>
<path d="M5180 1349 c0 -34 -19 -31 -21 4 -1 17 -3 15 -9 -8 -4 -16 -8 -24 -9
-17 -2 21 -30 13 -59 -18 -16 -16 -39 -30 -51 -30 -17 0 -21 -6 -21 -35 0 -19
-5 -35 -11 -35 -6 0 -9 -6 -6 -14 3 -7 2 -29 -2 -48 -7 -32 -6 -35 10 -31 12
4 19 15 20 32 0 23 1 24 9 6 5 -11 9 -16 9 -12 1 4 11 3 22 -4 12 -6 19 -7 16
-2 -3 5 2 17 13 25 17 15 19 15 23 -3 8 -31 27 -22 28 14 l1 32 8 -30 8 -30 1
27 c2 39 19 44 24 6 2 -18 5 20 5 85 1 64 0 117 -3 117 -3 0 -5 -14 -5 -31z"/>
<path d="M5056 1351 c-17 -19 -17 -19 3 -14 12 3 21 12 21 19 0 18 -4 18 -24
-5z"/>
<path d="M5603 1348 c-13 -6 -23 -17 -23 -24 0 -7 -15 -20 -34 -29 -29 -14
-60 -49 -38 -43 4 1 18 -4 32 -11 15 -9 56 -14 110 -14 82 0 130 12 130 34 0
6 -3 8 -7 6 -14 -9 -68 28 -71 48 -7 41 -52 56 -99 33z"/>
<path d="M5475 1320 c3 -5 8 -10 11 -10 2 0 4 5 4 10 0 6 -5 10 -11 10 -5 0
-7 -4 -4 -10z"/>
<path d="M4730 975 c0 0 10 -9 22 -19 17 -15 20 -15 15 -3 -3 9 -1 18 6 20 7
2 0 4 -15 3 -16 0 -28 -1 -28 -1z"/>
</g>
</svg>
