<?xml version="1.0" standalone="no"?>
<!DOCTYPE svg PUBLIC "-//W3C//DTD SVG 20010904//EN"
 "http://www.w3.org/TR/2001/REC-SVG-20010904/DTD/svg10.dtd">
<svg version="1.0" xmlns="http://www.w3.org/2000/svg"
 width="1129.000000pt" height="703.000000pt" viewBox="0 0 1129.000000 703.000000"
 preserveAspectRatio="xMidYMid meet">

<g transform="translate(0.000000,703.000000) scale(0.100000,-0.100000)"
fill="#000000" stroke="none">
<path d="M4465 6641 c-43 -19 -91 -68 -107 -110 -5 -14 -21 -82 -34 -151 -14
-69 -37 -172 -50 -230 -14 -58 -63 -283 -109 -500 -46 -217 -98 -458 -115
-535 -17 -77 -67 -309 -111 -515 -43 -206 -90 -424 -104 -485 -34 -158 -82
-380 -95 -450 -21 -106 12 -97 -338 -91 -342 6 -390 1 -470 -47 -63 -37 -102
-83 -140 -164 l-27 -58 -5 -656 c-5 -624 -6 -658 -24 -678 -48 -53 -140 -47
-177 13 -18 30 -19 57 -19 622 0 662 -9 1134 -22 1134 -4 0 -7 -3 -7 -7 1 -5
1 -17 -1 -28 l-1 -20 -9 20 c-5 11 -9 16 -10 10 0 -5 -11 9 -23 33 l-23 43
-14 -25 c-15 -29 -64 -38 -53 -10 4 11 1 15 -13 13 -10 -2 -25 0 -31 4 -9 5
-13 3 -13 -7 0 -9 -4 -16 -10 -16 -5 0 -10 19 -11 43 -1 34 -2 37 -8 17 -6
-21 -8 -17 -14 26 -8 57 -30 85 -49 66 -9 -9 -9 -12 0 -12 7 0 12 -5 12 -11 0
-6 -6 -9 -14 -6 -10 4 -16 -3 -19 -21 -3 -18 -4 -13 -6 16 -1 49 -20 57 -23
10 -1 -25 -3 -21 -8 17 -5 37 -8 14 -9 -85 -2 -74 -2 -156 -1 -182 1 -33 -3
-49 -12 -50 -7 -1 -105 -2 -218 -3 -200 -1 -206 -1 -262 -27 -73 -34 -152
-112 -186 -186 l-27 -57 -5 -351 c-5 -379 -4 -370 -61 -400 -36 -18 -63 -18
-100 2 -54 27 -59 57 -59 324 0 132 -2 240 -4 240 -2 0 -30 -13 -62 -29 -79
-39 -181 -69 -259 -77 l-65 -7 0 -211 c0 -299 20 -369 142 -490 117 -116 249
-166 401 -151 133 13 198 42 300 135 61 56 95 106 130 193 20 48 22 75 27 377
l5 325 150 0 150 0 5 -625 5 -625 26 -68 c34 -85 67 -134 139 -200 60 -56 141
-100 211 -116 103 -24 260 -6 348 39 61 31 165 134 198 197 71 133 68 102 69
783 l0 615 380 5 c365 5 380 6 420 27 50 27 112 93 120 130 3 16 7 34 10 41 8
28 64 286 88 407 23 120 56 273 92 435 8 36 48 230 89 432 41 202 81 394 88
425 8 32 23 95 32 141 11 48 23 81 29 79 6 -2 16 -48 23 -103 7 -54 26 -200
43 -324 17 -124 49 -364 71 -535 39 -304 74 -556 124 -905 14 -96 41 -296 61
-445 19 -148 55 -412 80 -585 24 -173 67 -477 94 -675 27 -198 56 -403 64
-455 8 -52 24 -171 36 -265 25 -202 34 -238 67 -287 63 -93 213 -105 301 -24
52 46 67 99 141 491 12 61 28 139 36 175 24 108 112 536 139 675 33 170 221
1095 236 1160 6 28 44 209 85 403 40 194 76 356 79 359 11 11 17 -4 76 -194
32 -103 79 -246 104 -317 25 -71 46 -130 46 -132 0 -14 81 -89 114 -107 41
-22 41 -22 900 -27 l859 -5 3 -610 c4 -590 8 -684 35 -701 5 -3 6 10 3 28 -3
18 -2 28 3 22 11 -15 55 -26 46 -12 -3 7 -1 8 5 4 7 -4 12 -14 12 -22 0 -8 5
-14 11 -14 6 0 8 9 4 20 -4 12 -2 20 6 20 6 0 18 8 26 18 13 15 14 15 10 -11
-3 -22 -2 -25 9 -16 8 6 14 17 14 23 0 7 22 11 60 11 51 0 60 -3 63 -20 4 -18
4 -17 6 3 0 12 5 22 10 22 5 0 11 8 13 17 2 11 8 3 15 -20 6 -20 7 -37 3 -37
-5 0 -11 8 -13 18 -3 10 -5 6 -6 -10 -1 -19 4 -28 14 -28 8 0 16 5 16 10 1 6
2 14 3 19 2 18 16 24 16 8 0 -22 9 -22 26 0 13 17 14 16 11 -4 -2 -11 -9 -28
-16 -37 -7 -9 -9 -16 -3 -16 5 0 12 -10 15 -22 5 -19 4 -21 -6 -8 -7 8 -20 21
-30 29 -17 13 -18 12 -16 -10 5 -55 0 -71 -20 -64 -11 3 -22 1 -26 -5 -3 -6
-11 -8 -16 -5 -13 9 -11 43 4 48 9 4 9 6 -1 6 -15 1 -18 -8 -26 -66 -5 -34 -3
-43 9 -43 8 0 14 -3 14 -7 -1 -5 0 -10 1 -13 7 -16 6 -61 -2 -66 -4 -3 -8 2
-8 10 0 10 -6 13 -16 9 -11 -4 -12 -8 -4 -13 7 -5 9 -13 5 -20 -5 -9 -4 -11 3
-6 8 5 12 0 12 -13 0 -24 40 -44 108 -54 33 -6 42 -4 42 7 0 9 10 13 30 12 17
-1 30 3 30 8 0 6 4 5 9 -3 7 -11 10 -11 16 0 6 9 10 8 16 -7 6 -15 8 -15 8 -3
1 18 48 32 54 16 2 -6 11 -6 25 2 12 6 22 8 22 3 0 -4 -12 -13 -27 -20 l-28
-12 30 6 c46 8 144 58 122 62 -10 2 -24 -1 -31 -8 -11 -8 -14 -7 -13 2 1 40
-3 52 -15 40 -7 -7 -19 -12 -27 -11 -11 0 -10 3 4 9 13 6 15 9 5 9 -13 1 -13
2 0 11 11 7 2 9 -30 9 -25 -1 -37 -3 -27 -6 9 -2 17 -11 17 -19 0 -17 -27 -19
-33 -1 -3 8 -9 7 -19 -6 -13 -17 -14 -17 -36 3 -17 16 -22 17 -22 6 0 -10 -6
-13 -15 -10 -8 4 -12 10 -9 15 3 5 -2 9 -10 9 -10 0 -13 -6 -9 -17 5 -13 3
-13 -13 3 -19 19 -19 19 23 22 42 3 58 19 47 47 -4 8 -12 15 -20 15 -13 0 -34
30 -34 49 0 6 7 11 15 11 8 0 12 -6 9 -14 -8 -22 12 -27 29 -8 20 22 35 78 18
68 -6 -4 -11 -2 -11 4 0 6 -4 8 -10 5 -5 -3 -10 2 -11 12 0 11 -3 13 -6 5 -4
-10 -8 -9 -19 5 -8 11 -13 13 -14 6 0 -19 -18 -16 -23 4 -3 11 -5 6 -6 -11 -1
-40 -15 -24 -18 21 -1 20 -11 45 -21 57 -43 47 -43 39 -40 703 l3 638 -24 59
c-30 76 -93 139 -179 179 l-67 32 -824 1 c-755 1 -825 2 -836 18 -7 9 -102
285 -211 613 -191 574 -200 599 -239 639 -38 40 -91 64 -139 64 -67 0 -156
-57 -181 -117 -8 -20 -49 -196 -90 -392 -159 -763 -253 -1216 -315 -1516 -21
-104 -60 -289 -85 -410 -25 -121 -57 -276 -70 -345 -14 -69 -28 -132 -31 -140
-9 -25 -34 18 -34 60 0 21 -29 250 -65 511 -36 261 -72 526 -81 589 -8 63 -28
207 -44 320 -16 113 -41 297 -55 410 -15 113 -35 261 -45 330 -11 69 -31 215
-45 325 -14 110 -51 378 -81 595 -30 217 -63 460 -74 540 -93 695 -110 812
-121 853 -12 46 -63 106 -106 123 -44 19 -100 17 -148 -5z m-2108 -2897 c-3
-3 -12 -4 -19 -1 -8 3 -5 6 6 6 11 1 17 -2 13 -5z m6230 -1776 c-3 -8 -6 -5
-6 6 -1 11 2 17 5 13 3 -3 4 -12 1 -19z m-271 -14 c-4 -9 -9 -15 -11 -12 -3 3
-3 13 1 22 4 9 9 15 11 12 3 -3 3 -13 -1 -22z m364 -134 c0 -5 -4 -10 -10 -10
-5 0 -10 5 -10 10 0 6 5 10 10 10 6 0 10 -4 10 -10z m103 -87 c-13 -2 -33 -2
-45 0 -13 2 -3 4 22 4 25 0 35 -2 23 -4z m-30 -20 c-7 -2 -19 -2 -25 0 -7 3
-2 5 12 5 14 0 19 -2 13 -5z m47 -3 c0 -5 -4 -10 -10 -10 -5 0 -10 5 -10 10 0
6 5 10 10 10 6 0 10 -4 10 -10z m-137 -27 c-13 -2 -23 -12 -23 -21 0 -14 -2
-15 -9 -2 -14 20 -4 30 27 29 24 -2 24 -2 5 -6z m-8 -103 c3 -5 1 -10 -4 -10
-6 0 -11 5 -11 10 0 6 2 10 4 10 3 0 8 -4 11 -10z m55 -10 c0 -5 -4 -10 -10
-10 -5 0 -10 5 -10 10 0 6 5 10 10 10 6 0 10 -4 10 -10z"/>
<path d="M8715 5178 c-6 -27 -9 -29 -17 -13 -8 14 -12 15 -19 4 -6 -11 -12 -9
-31 6 -22 19 -22 19 -8 1 14 -18 13 -19 -2 -13 -12 4 -18 1 -18 -9 0 -9 5 -12
12 -8 8 5 9 2 5 -10 -5 -12 -3 -15 5 -9 24 14 53 10 67 -10 12 -17 15 -18 23
-3 5 9 20 16 33 16 24 0 30 -9 25 -40 -1 -10 3 -9 14 5 8 11 15 25 16 30 0 6
-5 3 -11 -5 -9 -13 -10 -13 -6 0 2 8 12 14 21 14 17 -2 23 31 6 41 -5 3 -7 12
-3 20 4 12 -6 15 -50 15 -54 0 -56 -1 -62 -32z m97 0 c-4 -17 -6 -17 -22 -3
-10 9 -24 13 -35 9 -12 -5 -16 -4 -12 3 4 6 22 11 41 10 27 -1 32 -4 28 -19z"/>
<path d="M2559 5173 c-6 -15 -13 -23 -17 -18 -11 16 -34 17 -43 3 -6 -9 -10
-8 -15 5 -10 26 -24 20 -25 -10 l-1 -28 -7 25 c-7 24 -8 24 -13 -8 -3 -25 -1
-32 9 -28 19 8 52 -15 46 -30 -2 -7 -11 -10 -19 -7 -9 3 -14 -2 -14 -17 0 -15
4 -20 15 -17 8 4 17 2 20 -3 4 -6 18 -10 32 -10 16 0 27 -7 30 -20 3 -11 9
-17 14 -15 4 3 6 12 2 20 -3 8 0 15 6 15 6 0 11 -11 11 -25 0 -19 -5 -25 -21
-25 -12 0 -17 -4 -13 -11 4 -7 21 -9 44 -5 21 3 40 3 43 -2 2 -4 2 -1 1 5 -2
7 5 17 14 22 9 6 12 11 5 11 -6 0 -15 -5 -18 -11 -11 -17 -38 -5 -40 19 -1 12
3 22 8 22 5 0 4 6 -2 13 -6 8 -9 16 -7 18 2 2 -14 5 -37 7 -44 3 -65 21 -43
37 7 6 12 16 10 23 -1 7 0 8 3 2 8 -17 43 -11 44 8 0 13 2 12 9 -5 13 -32 20
-29 20 7 0 24 -4 30 -17 28 -12 -2 -18 3 -17 15 2 25 -5 21 -17 -10z"/>
<path d="M2660 5155 c0 -14 5 -25 10 -25 6 0 10 4 10 9 0 5 3 16 6 25 4 11 1
16 -10 16 -10 0 -16 -9 -16 -25z"/>
<path d="M8850 5155 c0 -26 15 -34 23 -12 4 8 6 7 6 -3 1 -9 -3 -21 -9 -28 -6
-8 -5 -7 4 0 8 7 17 24 21 38 4 14 4 22 0 18 -4 -4 -16 -3 -26 3 -16 8 -19 6
-19 -16z"/>
<path d="M2620 5157 c0 -8 6 -14 14 -14 8 0 12 6 9 14 -3 7 -9 13 -14 13 -5 0
-9 -6 -9 -13z"/>
<path d="M8580 5161 c0 -6 4 -11 9 -11 5 0 12 -8 15 -17 3 -11 4 -8 3 6 -2 24
-27 44 -27 22z"/>
<path d="M8917 5163 c-4 -3 -7 -16 -6 -27 0 -19 1 -19 10 3 10 24 8 36 -4 24z"/>
<path d="M2421 5144 c0 -11 3 -14 6 -6 3 7 2 16 -1 19 -3 4 -6 -2 -5 -13z"/>
<path d="M8535 5150 c-3 -5 -1 -10 4 -10 6 0 11 5 11 10 0 6 -2 10 -4 10 -3 0
-8 -4 -11 -10z"/>
<path d="M8963 5117 c-1 -30 -1 -31 9 -9 7 14 8 26 2 32 -5 5 -10 -4 -11 -23z"/>
<path d="M8931 5124 c0 -11 3 -14 6 -6 3 7 2 16 -1 19 -3 4 -6 -2 -5 -13z"/>
<path d="M8644 5108 c-3 -4 6 -8 20 -8 14 0 26 4 26 8 0 4 -9 8 -21 8 -11 0
-23 -4 -25 -8z"/>
<path d="M8575 5090 c4 -6 11 -8 16 -5 14 9 11 15 -7 15 -8 0 -12 -5 -9 -10z"/>
<path d="M9020 5047 c0 -26 5 -47 10 -47 6 0 8 16 4 43 -9 58 -14 59 -14 4z"/>
<path d="M8750 5071 c0 -6 5 -13 10 -16 6 -3 10 1 10 9 0 9 -4 16 -10 16 -5 0
-10 -4 -10 -9z"/>
<path d="M8827 5073 c-3 -5 -1 -17 4 -28 7 -17 8 -17 8 8 1 27 -4 34 -12 20z"/>
<path d="M8475 5060 c-3 -5 -3 -10 1 -10 3 0 -4 -9 -17 -19 l-24 -20 25 -10
25 -10 -27 0 c-41 -1 -58 -11 -57 -35 0 -20 1 -20 10 3 6 16 13 20 22 14 18
-13 47 -10 56 6 5 8 16 11 25 8 10 -4 25 2 37 14 11 11 29 21 38 22 15 1 17 4
7 19 -11 18 -27 25 -25 11 3 -21 -3 -25 -18 -11 -23 20 -70 31 -78 18z"/>
<path d="M8790 5045 c7 -9 8 -15 2 -15 -6 0 -7 -10 -4 -22 6 -23 6 -23 12 2 8
29 2 50 -12 50 -6 0 -5 -6 2 -15z"/>
<path d="M2891 5040 c9 -5 28 -6 45 0 27 8 26 8 -16 9 -32 0 -40 -2 -29 -9z"/>
<path d="M8738 5033 c-10 -2 -18 -8 -18 -13 0 -5 7 -7 15 -4 9 4 15 0 15 -7 0
-11 3 -11 10 1 18 28 14 33 -22 23z"/>
<path d="M2472 5016 c7 -8 15 -12 17 -11 5 6 -10 25 -20 25 -5 0 -4 -6 3 -14z"/>
<path d="M2625 5020 c-3 -5 -1 -10 4 -10 6 0 11 5 11 10 0 6 -2 10 -4 10 -3 0
-8 -4 -11 -10z"/>
<path d="M2936 5023 c-9 -9 -7 -33 3 -33 12 0 22 28 12 34 -5 3 -11 3 -15 -1z"/>
<path d="M2528 5013 c7 -3 16 -2 19 1 4 3 -2 6 -13 5 -11 0 -14 -3 -6 -6z"/>
<path d="M2900 5000 c0 -5 5 -10 10 -10 6 0 10 5 10 10 0 6 -4 10 -10 10 -5 0
-10 -4 -10 -10z"/>
<path d="M2965 4990 c-3 -5 -1 -10 4 -10 6 0 11 5 11 10 0 6 -2 10 -4 10 -3 0
-8 -4 -11 -10z"/>
<path d="M8745 4950 c3 -5 10 -10 16 -10 5 0 9 5 9 10 0 6 -7 10 -16 10 -8 0
-12 -4 -9 -10z"/>
<path d="M2660 4930 c0 -19 3 -21 12 -12 9 9 9 15 0 24 -9 9 -12 7 -12 -12z"/>
<path d="M8385 4920 c3 -5 8 -10 11 -10 2 0 4 5 4 10 0 6 -5 10 -11 10 -5 0
-7 -4 -4 -10z"/>
<path d="M8660 4920 c0 -5 5 -10 10 -10 6 0 10 5 10 10 0 6 -4 10 -10 10 -5 0
-10 -4 -10 -10z"/>
<path d="M8770 4920 c0 -5 5 -10 10 -10 6 0 10 5 10 10 0 6 -4 10 -10 10 -5 0
-10 -4 -10 -10z"/>
<path d="M2253 4894 c-7 -7 -13 -20 -13 -29 0 -8 -4 -15 -10 -15 -5 0 -10 -5
-10 -11 0 -5 5 -7 10 -4 12 8 13 3 0 -29 -6 -17 -6 -26 0 -26 6 0 10 -16 10
-35 0 -27 -5 -38 -22 -44 l-22 -8 23 -6 c16 -4 20 -10 15 -19 -5 -7 -10 -21
-11 -32 -3 -14 0 -16 9 -8 10 8 13 -11 11 -94 0 -57 3 -107 8 -110 5 -3 9 7 9
23 0 16 3 23 8 16 4 -6 6 22 4 63 -3 44 0 74 6 74 5 0 8 -20 7 -45 -1 -25 2
-45 7 -45 14 0 9 105 -7 126 -16 21 -20 38 -6 30 13 -9 21 19 21 75 0 35 -4
51 -15 55 -12 5 -13 9 -3 21 8 10 9 16 1 21 -6 4 -13 21 -15 39 -2 25 -5 28
-15 17z"/>
<path d="M2182 4850 c0 -14 2 -19 5 -12 2 6 2 18 0 25 -3 6 -5 1 -5 -13z"/>
<path d="M8306 4855 c-3 -8 -1 -15 4 -15 6 0 10 7 10 15 0 8 -2 15 -4 15 -2 0
-6 -7 -10 -15z"/>
<path d="M9238 4813 c4 -30 2 -35 -12 -30 -12 5 -16 1 -16 -16 -1 -27 -33 -67
-54 -67 -9 0 -16 -8 -16 -20 0 -23 4 -24 30 -10 15 8 21 6 29 -7 6 -10 11 -12
11 -5 0 6 5 12 10 12 13 0 13 -27 1 -32 -5 -1 -12 -16 -16 -33 l-7 -30 24 35
c22 34 23 34 26 11 2 -13 -2 -28 -10 -33 -10 -7 -10 -11 0 -15 6 -2 12 -11 12
-18 0 -7 -6 -16 -12 -19 -10 -5 -10 -7 0 -12 6 -3 12 -14 12 -25 0 -10 -6 -19
-12 -19 -10 0 -10 -2 -1 -8 6 -4 14 -34 16 -67 2 -33 4 49 3 182 -1 154 -5
246 -11 253 -8 7 -10 -1 -7 -27z m12 -52 c0 -6 -4 -13 -10 -16 -5 -3 -10 1
-10 9 0 9 5 16 10 16 6 0 10 -4 10 -9z m-3 -56 c5 -4 2 -5 -5 -1 -7 4 -15 1
-18 -8 -8 -22 -23 -20 -21 2 1 19 30 23 44 7z"/>
<path d="M2173 4785 c0 -22 2 -30 4 -17 2 12 2 30 0 40 -3 9 -5 -1 -4 -23z"/>
<path d="M2201 4784 c0 -11 3 -14 6 -6 3 7 2 16 -1 19 -3 4 -6 -2 -5 -13z"/>
<path d="M2320 4750 c0 -5 5 -10 10 -10 6 0 10 5 10 10 0 6 -4 10 -10 10 -5 0
-10 -4 -10 -10z"/>
<path d="M2222 4730 c0 -14 2 -19 5 -12 2 6 2 18 0 25 -3 6 -5 1 -5 -13z"/>
<path d="M2420 4693 c0 -50 -3 -62 -17 -66 -16 -4 -16 -5 -1 -6 15 -1 17 -23
16 -238 -1 -232 6 -328 22 -318 14 9 43 173 32 189 -9 15 -9 176 0 176 5 0 8
5 8 11 0 5 -4 7 -10 4 -6 -4 -10 26 -11 82 -1 113 -12 200 -27 215 -9 9 -12
-2 -12 -49z"/>
<path d="M8380 4739 c0 -5 5 -7 10 -4 6 3 10 8 10 11 0 2 -4 4 -10 4 -5 0 -10
-5 -10 -11z"/>
<path d="M9155 4740 c-3 -5 1 -10 9 -10 9 0 16 5 16 10 0 6 -4 10 -9 10 -6 0
-13 -4 -16 -10z"/>
<path d="M3030 4729 c0 -5 6 -9 13 -10 6 0 3 -4 -8 -9 -11 -5 -14 -9 -8 -9 8
-1 11 -11 7 -31 -4 -19 -2 -30 4 -30 6 0 9 -6 6 -14 -4 -11 0 -13 16 -9 12 3
17 9 11 12 -5 4 -9 29 -8 55 1 40 -2 50 -16 52 -9 1 -17 -2 -17 -7z"/>
<path d="M2317 4719 c7 -7 15 -10 18 -7 3 3 -2 9 -12 12 -14 6 -15 5 -6 -5z"/>
<path d="M8285 4710 c-8 -13 -1 -24 14 -19 6 3 7 10 2 18 -6 10 -10 10 -16 1z"/>
<path d="M8378 4697 c-3 -13 -1 -32 3 -43 5 -13 8 -7 8 24 1 46 -4 55 -11 19z"/>
<path d="M2164 4570 c0 -109 1 -119 3 -42 3 77 7 101 16 95 9 -5 9 -4 0 8 -6
8 -13 30 -16 49 -2 19 -4 -30 -3 -110z"/>
<path d="M2314 4658 c-2 -42 9 -40 20 3 4 17 1 29 -7 32 -8 3 -12 -8 -13 -35z"/>
<path d="M8280 4660 c0 -5 9 -10 20 -10 11 0 20 5 20 10 0 6 -9 10 -20 10 -11
0 -20 -4 -20 -10z"/>
<path d="M9081 4654 c0 -11 3 -14 6 -6 3 7 2 16 -1 19 -3 4 -6 -2 -5 -13z"/>
<path d="M9101 4644 c0 -11 3 -14 6 -6 3 7 2 16 -1 19 -3 4 -6 -2 -5 -13z"/>
<path d="M2346 4633 c-4 -9 -2 -21 4 -27 7 -7 10 -7 10 1 0 6 3 18 6 27 3 9 2
16 -4 16 -5 0 -13 -8 -16 -17z"/>
<path d="M8304 4625 c-4 -8 -10 -12 -15 -9 -5 3 -9 -20 -9 -50 l0 -56 25 12
c30 13 33 28 5 21 -16 -4 -20 -1 -19 18 0 22 1 23 9 4 7 -17 9 -15 9 13 1 17
6 32 11 32 6 0 10 7 10 15 0 19 -19 19 -26 0z"/>
<path d="M2510 4620 c0 -5 5 -10 11 -10 5 0 7 5 4 10 -3 6 -8 10 -11 10 -2 0
-4 -4 -4 -10z"/>
<path d="M3040 4570 c0 -16 4 -30 8 -30 5 0 7 14 4 30 -2 17 -6 30 -8 30 -2 0
-4 -13 -4 -30z"/>
<path d="M10001 4589 c0 -9 -11 -19 -23 -22 -22 -6 -22 -6 -4 8 20 15 20 15 0
15 -25 0 -38 -11 -42 -35 -2 -11 -9 -23 -15 -27 -18 -11 -6 -16 63 -23 73 -7
89 -14 66 -27 -9 -5 -16 -18 -16 -28 0 -11 -6 -20 -14 -20 -8 0 -13 -9 -12
-24 0 -13 4 -22 8 -20 4 3 11 -4 17 -13 8 -14 11 -15 11 -3 1 12 3 11 14 -3 8
-10 16 -13 17 -8 2 6 22 12 44 14 24 1 43 8 47 17 9 20 10 88 0 74 -21 -31
-62 -19 -62 19 0 16 3 17 15 7 8 -7 15 -9 15 -4 0 5 5 2 10 -6 8 -12 10 -12
10 5 0 17 2 17 10 5 5 -8 10 -10 11 -5 0 6 5 -1 9 -15 l8 -25 1 28 c1 28 15
37 24 15 3 -8 6 -6 6 5 1 10 9 17 21 17 13 0 20 7 20 20 0 11 -4 21 -10 21 -5
1 -14 2 -19 3 -5 0 -13 5 -18 10 -5 5 -3 6 5 2 6 -4 12 -3 12 2 0 18 -29 21
-33 4 -4 -16 -5 -15 -6 1 0 9 -6 17 -12 17 -6 0 -8 -9 -4 -20 7 -23 2 -25 -26
-10 -13 7 -19 7 -19 0 0 -16 -24 -7 -38 15 -13 19 -13 19 -9 -3 3 -14 1 -20
-5 -16 -6 4 -23 7 -39 6 -21 0 -29 5 -32 21 -3 13 -5 15 -6 6z m88 -131 c0
-35 -2 -39 -9 -21 -8 19 -3 63 6 63 2 0 4 -19 3 -42z m38 -60 c-3 -8 -6 -5 -6
6 -1 11 2 17 5 13 3 -3 4 -12 1 -19z"/>
<path d="M1174 4576 c-10 -5 -25 -12 -33 -15 -19 -9 -23 -58 -5 -65 8 -3 20
-3 27 -1 6 3 23 -11 36 -30 18 -26 26 -32 32 -23 6 9 10 3 15 -18 6 -30 10
-32 60 -39 44 -5 54 -10 54 -25 0 -21 22 -18 52 7 9 8 20 13 25 10 4 -3 6 17
5 44 -3 40 -1 48 11 43 16 -6 31 22 17 31 -6 4 -10 12 -10 18 0 7 7 3 15 -7
11 -15 17 -17 29 -7 11 9 15 9 18 -1 3 -7 12 1 22 21 10 18 14 37 9 41 -15 14
-73 22 -73 10 0 -6 5 -8 12 -4 7 5 8 3 3 -6 -5 -9 -1 -10 16 -6 20 6 21 5 6
-4 -20 -13 -35 -6 -47 24 -7 17 -9 18 -9 3 -1 -10 -5 -15 -11 -12 -5 3 -10 1
-10 -4 0 -6 -7 -11 -15 -11 -8 0 -15 6 -15 13 0 8 -4 7 -10 -3 -8 -13 -10 -13
-10 0 0 10 -3 11 -12 2 -7 -7 -17 -8 -30 -1 -10 5 -18 6 -18 1 0 -5 -7 -9 -15
-9 -8 0 -15 4 -15 9 0 4 -10 8 -23 8 -13 0 -27 3 -31 8 -11 10 -50 10 -72 -2z
m183 -98 c-3 -8 -6 -5 -6 6 -1 11 2 17 5 13 3 -3 4 -12 1 -19z m-80 -50 c-3
-8 -6 -5 -6 6 -1 11 2 17 5 13 3 -3 4 -12 1 -19z"/>
<path d="M2514 4455 c1 -74 -1 -135 -5 -135 -4 0 -9 10 -11 23 -3 17 -5 15 -9
-11 -4 -25 -2 -32 8 -28 7 3 13 -1 13 -10 0 -9 -5 -12 -12 -8 -8 5 -10 -4 -6
-34 4 -24 1 -45 -5 -51 -9 -9 -8 -14 2 -20 8 -5 11 -16 8 -24 -3 -9 -1 -18 6
-21 8 -3 8 -5 -2 -5 -10 -1 -11 -4 -2 -14 6 -8 15 -31 20 -53 6 -27 9 48 10
244 1 155 -3 282 -8 282 -5 0 -8 -61 -7 -135z"/>
<path d="M2352 4560 c0 -14 2 -19 5 -12 2 6 2 18 0 25 -3 6 -5 1 -5 -13z"/>
<path d="M9900 4560 c0 -5 5 -10 10 -10 6 0 10 5 10 10 0 6 -4 10 -10 10 -5 0
-10 -4 -10 -10z"/>
<path d="M10262 4558 c2 -6 10 -14 16 -16 7 -2 10 2 6 12 -7 18 -28 22 -22 4z"/>
<path d="M10300 4530 c0 -5 5 -10 11 -10 5 0 7 5 4 10 -3 6 -8 10 -11 10 -2 0
-4 -4 -4 -10z"/>
<path d="M8304 4495 c3 -8 -2 -19 -12 -24 -10 -6 -12 -11 -4 -11 6 0 12 -7 12
-15 0 -8 5 -15 10 -15 6 0 10 18 10 40 0 23 -5 40 -11 40 -6 0 -9 -7 -5 -15z"/>
<path d="M8891 4264 c1 -122 4 -173 9 -144 8 49 5 319 -4 328 -3 3 -5 -80 -5
-184z"/>
<path d="M1014 4423 c-9 -3 -8 -13 3 -35 14 -27 17 -29 26 -13 6 11 6 20 0 24
-6 3 -12 11 -14 17 -2 6 -9 9 -15 7z"/>
<path d="M1456 4411 c-4 -7 -5 -15 -2 -18 9 -9 19 4 14 18 -4 11 -6 11 -12 0z"/>
<path d="M2252 4380 c0 -14 2 -19 5 -12 2 6 2 18 0 25 -3 6 -5 1 -5 -13z"/>
<path d="M10407 4393 c-4 -3 -7 -17 -7 -31 0 -17 4 -23 15 -19 12 5 14 -4 13
-49 -1 -50 -3 -55 -22 -50 -12 3 -26 -3 -38 -16 -10 -12 -21 -18 -25 -15 -3 4
-12 2 -20 -4 -9 -8 -17 -8 -26 -1 -8 7 -18 6 -31 -4 -19 -13 -19 -14 5 -15 21
0 21 -1 5 -8 -16 -6 -19 -18 -18 -69 0 -34 -4 -62 -9 -62 -12 0 -11 -37 1 -45
6 -4 7 -12 3 -18 -4 -6 -8 -32 -10 -57 -1 -27 1 -40 6 -31 7 11 9 11 13 0 3
-8 3 7 0 34 -3 29 -1 47 6 47 6 0 14 -35 18 -77 5 -54 9 -72 15 -58 7 19 8 19
8 1 2 -34 13 -9 13 28 0 20 4 39 9 42 5 3 9 14 9 25 0 11 11 30 25 43 15 14
25 35 26 52 0 25 2 26 8 9 7 -16 10 -9 15 30 10 73 14 84 15 49 1 -35 30 -44
32 -10 1 16 3 15 9 -7 5 -16 6 -36 3 -45 -5 -12 -2 -14 11 -9 10 4 20 7 22 7
2 0 4 7 4 15 0 8 -6 15 -12 15 -10 0 -10 2 0 9 7 4 14 23 14 40 1 18 7 35 15
38 16 6 18 33 2 33 -7 0 -8 11 -4 30 4 19 3 30 -4 30 -6 0 -11 4 -11 10 0 5 7
7 15 4 13 -5 14 -2 5 22 -6 16 -13 36 -16 44 -4 13 -6 13 -15 0 -8 -12 -9 -10
-4 7 3 12 1 24 -5 28 -5 3 -10 1 -10 -5 0 -7 -7 -10 -15 -6 -12 4 -15 -3 -16
-32 l-2 -37 -6 38 c-3 21 -10 38 -16 37 -5 0 -9 5 -7 10 2 12 -2 13 -11 3z"/>
<path d="M8310 4380 c-9 -6 -10 -10 -3 -10 6 0 15 5 18 10 8 12 4 12 -15 0z"/>
<path d="M9660 4361 c0 -5 6 -12 13 -14 6 -3 2 -6 -11 -6 -21 -1 -22 -2 -8
-17 9 -8 16 -20 16 -27 0 -6 -6 -2 -14 9 -14 18 -15 17 -30 -17 -8 -19 -17
-48 -20 -65 l-6 -29 12 28 c7 15 16 27 21 27 4 0 6 -4 2 -9 -3 -5 -1 -12 4
-16 6 -3 8 -12 4 -20 -3 -9 0 -21 6 -29 6 -7 12 -34 13 -60 1 -25 6 -46 10
-46 4 0 8 6 8 13 0 9 3 8 9 -2 6 -9 11 4 17 40 l7 54 13 -40 c7 -22 13 -32 13
-22 1 10 6 15 11 12 6 -3 7 -17 4 -29 -3 -14 1 -29 10 -39 9 -8 16 -23 16 -32
0 -12 6 -16 18 -13 10 3 27 -1 37 -8 10 -8 13 -14 7 -14 -7 0 -12 -7 -12 -16
0 -8 5 -12 10 -9 6 4 10 -12 10 -40 0 -34 -3 -44 -12 -39 -10 6 -10 4 0 -7 16
-17 17 -165 0 -175 -6 -4 -17 1 -25 12 -12 17 -12 20 9 26 l23 6 -23 1 c-13 1
-21 5 -17 10 3 5 0 13 -6 17 -8 4 -7 9 2 15 10 6 5 9 -14 9 -16 0 -26 -4 -22
-10 11 -17 -3 -11 -30 14 -15 14 -31 26 -37 28 -5 2 -13 37 -17 78 l-7 75 -8
-74 c-5 -48 -11 -69 -17 -60 -6 9 -9 2 -9 -23 0 -21 -4 -38 -9 -38 -5 0 -12
-8 -14 -17 -3 -10 -6 11 -7 47 -5 151 -18 114 -19 -56 -1 -146 -4 -184 -16
-194 -8 -6 -20 -9 -27 -5 -7 4 1 -6 17 -21 30 -28 37 -71 10 -61 -7 3 -18 0
-24 -6 -8 -8 -14 -6 -24 8 -9 12 -21 16 -35 12 -12 -3 -25 -1 -28 4 -3 5 -11
9 -17 8 -34 -4 -47 3 -54 29 l-7 27 -7 -30 -7 -30 -1 34 c-1 29 -3 32 -16 21
-9 -8 -15 -9 -15 -2 0 6 -17 12 -37 14 l-38 3 -6 115 c-3 83 -6 96 -7 48 -2
-53 -5 -68 -17 -68 -8 0 -15 6 -15 13 0 8 -10 13 -22 13 -17 -1 -26 -11 -35
-36 l-13 -35 3 48 c1 26 -1 47 -5 47 -5 0 -8 -13 -8 -29 0 -29 -25 -50 -34
-28 -2 7 -5 1 -6 -13 -1 -14 -4 -19 -7 -12 -7 18 -23 15 -24 -5 0 -15 -2 -15
-9 2 -7 16 -9 17 -9 3 -1 -9 -9 -22 -18 -28 -13 -8 -14 -13 -6 -16 8 -4 2 -15
-18 -31 -16 -14 -28 -32 -25 -39 3 -7 0 -14 -5 -16 -6 -2 -14 -26 -18 -53 -8
-47 -9 -48 -10 -12 -1 28 -5 37 -18 37 -13 0 -14 -3 -5 -12 14 -14 16 -52 2
-43 -6 4 -10 -16 -11 -52 0 -74 -6 -143 -12 -150 -3 -2 -6 42 -6 98 -1 56 -3
105 -6 107 -3 3 -5 -47 -5 -112 0 -76 4 -115 10 -111 6 3 10 1 10 -4 0 -6 7
-11 15 -11 11 0 15 -12 16 -42 l2 -43 7 40 c4 22 8 33 9 23 0 -9 7 -19 14 -21
10 -4 10 -6 0 -6 -7 -1 -13 -12 -13 -26 0 -14 -4 -25 -9 -25 -12 0 -21 26 -21
61 0 16 -5 29 -10 29 -16 0 -8 -152 8 -158 7 -2 12 6 12 22 0 22 4 26 29 26
18 0 31 6 35 18 3 9 9 23 12 30 3 7 -1 12 -10 12 -9 0 -16 5 -16 10 0 6 5 10
12 10 6 0 3 9 -7 20 -10 11 -13 20 -7 20 7 0 12 10 12 22 0 17 3 19 12 10 8
-8 8 -15 -1 -25 -9 -12 -7 -15 14 -19 25 -5 34 5 15 17 -5 3 -10 12 -10 18 0
8 3 9 8 1 4 -6 15 -13 25 -17 9 -3 17 -15 17 -26 0 -20 26 -36 35 -21 3 4 2
16 -2 27 -7 17 -6 17 11 0 10 -10 15 -24 12 -32 -3 -8 -1 -17 4 -20 4 -3 10 1
13 7 7 22 35 -10 31 -35 -4 -21 -4 -21 5 -2 13 26 14 58 2 50 -18 -11 -20 12
-2 27 17 14 18 13 19 -20 1 -20 6 -40 10 -44 6 -6 8 9 6 36 -2 25 0 47 4 50
10 6 14 -44 21 -324 l7 -245 2 272 c1 149 5 278 8 287 3 9 18 16 33 17 14 0
20 3 14 6 -7 2 -13 13 -13 24 0 19 6 22 43 22 9 0 17 3 17 6 0 4 17 8 38 9 20
2 38 7 40 12 2 4 16 5 32 0 16 -4 31 -6 34 -3 3 3 12 0 21 -7 9 -7 18 -10 22
-6 3 3 2 6 -4 6 -6 0 -9 8 -6 19 3 13 12 17 31 15 34 -4 43 11 30 48 -13 37
-4 58 24 59 21 1 21 1 3 7 -24 8 -31 38 -10 46 9 3 15 0 15 -9 0 -8 5 -15 10
-15 6 0 10 8 10 18 1 15 2 15 11 -2 9 -15 13 -16 20 -5 8 12 11 12 19 -1 7
-12 3 -18 -18 -27 l-27 -11 37 -7 c21 -4 35 -12 32 -17 -3 -5 3 -12 15 -15 12
-3 21 -10 21 -15 0 -5 -4 -7 -9 -4 -15 10 -40 -5 -35 -19 10 -24 44 -25 54 -2
7 19 9 19 9 4 1 -15 7 -18 36 -14 l35 5 0 -55 c0 -33 -4 -52 -10 -48 -5 3 -10
-2 -10 -12 0 -15 -2 -16 -10 -3 -6 10 -10 11 -10 3 0 -20 -20 -15 -21 5 0 14
-2 14 -9 -3 -7 -16 -9 -14 -9 15 -1 22 -4 30 -9 22 -5 -7 -16 -10 -24 -7 -11
4 -18 0 -21 -12 -4 -17 -5 -17 -6 1 -1 12 -6 16 -16 12 -15 -5 -19 4 -16 34 2
13 1 13 -8 0 -6 -8 -8 -23 -5 -32 3 -10 1 -18 -5 -18 -6 0 -11 6 -11 14 0 8
-5 18 -10 21 -7 4 -8 -3 -4 -22 4 -15 11 -30 16 -31 4 -2 6 -8 3 -12 -10 -16
-35 1 -35 24 0 11 -5 28 -10 36 -7 11 -8 5 -4 -20 4 -27 3 -31 -5 -20 -8 11
-11 -26 -10 -139 0 -96 4 -150 10 -144 5 5 10 38 11 74 1 35 3 55 6 44 2 -11
9 -24 16 -28 8 -6 8 -10 -1 -14 -18 -7 -16 -30 2 -37 8 -3 15 -17 15 -31 0
-15 4 -24 10 -20 7 4 8 -31 4 -102 -5 -89 -10 -111 -26 -124 -14 -13 -15 -18
-6 -22 10 -4 10 -8 -2 -16 -13 -10 -13 -11 0 -11 10 0 11 -3 3 -8 -6 -4 -13
-23 -16 -42 -3 -24 -5 -15 -7 30 -2 36 -4 73 -3 83 0 9 -4 17 -9 17 -14 0 -9
-142 7 -205 19 -73 65 -167 85 -173 11 -4 11 -1 -2 12 -16 16 -16 19 3 56 13
25 25 37 35 33 10 -4 14 2 14 20 0 14 5 29 10 32 6 3 10 -1 10 -9 0 -9 5 -16
10 -16 6 0 9 5 8 12 -2 6 8 14 22 18 14 3 26 11 26 18 1 7 2 24 3 38 1 15 5
23 12 19 6 -4 8 -14 5 -22 -5 -11 -2 -13 10 -9 8 3 22 6 30 6 11 0 14 20 14
95 0 64 4 95 11 95 8 0 8 5 -1 15 -7 8 -9 15 -4 15 5 0 9 22 10 50 1 27 -2 47
-6 45 -3 -2 -7 51 -8 118 -4 171 -9 226 -23 243 -10 13 -10 17 1 24 12 7 15
64 15 324 1 233 4 319 13 328 14 14 16 32 2 23 -16 -10 -12 12 6 30 9 8 13 22
10 31 -3 8 -6 60 -7 116 -1 62 -4 96 -10 87 -6 -11 -9 -8 -9 9 0 12 -4 22 -10
22 -5 0 -10 -7 -10 -16 0 -14 -2 -14 -22 0 -25 18 -42 21 -33 6 6 -10 -60 -8
-71 3 -4 4 -6 38 -5 77 1 38 0 70 -3 70 -3 0 -16 -4 -30 -10 -16 -6 -27 -6
-31 0 -8 13 -25 13 -25 1z m73 -36 c-7 -21 -13 -19 -13 6 0 11 4 18 10 14 5
-3 7 -12 3 -20z m-83 -45 c0 -5 -5 -10 -11 -10 -5 0 -7 5 -4 10 3 6 8 10 11
10 2 0 4 -4 4 -10z m197 -122 c-3 -8 -6 -5 -6 6 -1 11 2 17 5 13 3 -3 4 -12 1
-19z m-1 -504 c-5 -13 -9 -14 -21 -4 -20 16 -19 28 3 32 20 4 26 -6 18 -28z
m-663 11 c-3 -9 -8 -14 -10 -11 -3 3 -2 9 2 15 9 16 15 13 8 -4z m662 -78 c3
-12 1 -34 -5 -47 -9 -22 -9 -21 -4 9 5 29 4 33 -11 27 -22 -8 -36 1 -28 19 8
23 42 18 48 -8z m-218 -59 c-3 -7 -5 -2 -5 12 0 14 2 19 5 13 2 -7 2 -19 0
-25z m-267 -9 c0 -5 -4 -9 -10 -9 -5 0 -10 7 -10 16 0 8 5 12 10 9 6 -3 10
-10 10 -16z m480 -39 c0 -5 -4 -10 -10 -10 -5 0 -10 5 -10 10 0 6 5 10 10 10
6 0 10 -4 10 -10z m-312 -41 c-10 -7 -10 -9 0 -9 6 0 12 -7 12 -15 0 -8 5 -15
10 -15 6 0 10 11 10 25 0 14 5 25 11 25 7 0 9 -11 6 -26 -3 -15 -1 -39 3 -53
9 -32 2 -60 -10 -40 -7 10 -12 10 -23 1 -7 -7 -17 -9 -21 -5 -4 4 -23 6 -42 4
-26 -2 -34 1 -34 14 0 13 6 16 24 11 28 -7 39 12 30 50 -8 33 2 55 21 47 13
-5 14 -7 3 -14z m292 -34 c0 -8 -4 -15 -10 -15 -5 0 -10 7 -10 15 0 8 5 15 10
15 6 0 10 -7 10 -15z m13 -39 c23 -18 22 -21 -13 -22 -33 -2 -33 -2 -24 20 7
19 14 20 37 2z m-493 -26 c0 -5 -4 -10 -10 -10 -5 0 -10 5 -10 10 0 6 5 10 10
10 6 0 10 -4 10 -10z m34 -5 c-4 -8 -8 -15 -10 -15 -2 0 -4 7 -4 15 0 8 4 15
10 15 5 0 7 -7 4 -15z m66 11 c0 -9 -30 -14 -35 -6 -4 6 3 10 14 10 12 0 21
-2 21 -4z m-155 -117 c11 -17 2 -18 -19 -3 -17 12 -17 14 -4 14 9 0 20 -5 23
-11z m347 -73 c2 -19 -1 -41 -7 -49 -8 -11 -11 -3 -12 34 -1 56 13 67 19 15z
m195 -78 c-3 -7 -5 -2 -5 12 0 14 2 19 5 13 2 -7 2 -19 0 -25z m-837 12 c0 -5
-4 -10 -10 -10 -5 0 -10 5 -10 10 0 6 5 10 10 10 6 0 10 -4 10 -10z m-63 -52
c-3 -7 -5 -2 -5 12 0 14 2 19 5 13 2 -7 2 -19 0 -25z m883 2 c0 -5 -5 -10 -11
-10 -5 0 -7 5 -4 10 3 6 8 10 11 10 2 0 4 -4 4 -10z m33 -12 c8 -22 -2 -129
-13 -143 -8 -10 -7 -15 2 -19 7 -3 2 -3 -11 0 -17 5 -21 3 -16 -6 5 -9 4 -11
-3 -6 -20 12 -52 -13 -53 -42 0 -23 -2 -24 -8 -7 -7 18 -8 18 -18 1 -8 -14
-11 -2 -16 53 -6 78 0 141 15 141 5 0 7 -14 3 -32 l-7 -33 26 30 26 30 -10
-29 c-6 -16 -9 -31 -6 -33 8 -9 26 64 20 83 -4 13 -3 15 3 6 10 -13 43 -6 43
9 0 14 17 11 23 -3z m-206 -440 c-3 -7 -5 -2 -5 12 0 14 2 19 5 13 2 -7 2 -19
0 -25z m93 -109 c0 -5 -4 -9 -10 -9 -5 0 -10 7 -10 16 0 8 5 12 10 9 6 -3 10
-10 10 -16z"/>
<path d="M9522 3390 c0 -14 2 -19 5 -12 2 6 2 18 0 25 -3 6 -5 1 -5 -13z"/>
<path d="M9540 3365 c0 -8 5 -15 10 -15 6 0 10 7 10 15 0 8 -4 15 -10 15 -5 0
-10 -7 -10 -15z"/>
<path d="M10350 4366 c0 -2 7 -6 15 -10 8 -3 15 -1 15 4 0 6 -7 10 -15 10 -8
0 -15 -2 -15 -4z"/>
<path d="M905 4330 c3 -5 8 -10 11 -10 2 0 4 5 4 10 0 6 -5 10 -11 10 -5 0 -7
-4 -4 -10z"/>
<path d="M893 4313 c4 -6 3 -13 -3 -15 -14 -4 -44 -113 -37 -133 4 -8 16 -15
27 -15 14 0 20 -7 21 -22 1 -19 2 -18 9 6 5 16 7 33 4 38 -3 4 0 8 5 8 6 0 11
-7 11 -16 0 -8 4 -13 9 -10 4 3 6 -6 3 -19 -2 -15 0 -25 7 -25 15 0 14 53 -1
69 -9 9 -9 12 -1 7 6 -3 13 1 16 11 3 10 5 3 6 -16 1 -48 13 -31 22 32 7 59 3
73 -17 56 -11 -9 -14 -7 -14 14 0 36 -20 45 -21 10 l-1 -28 -8 25 c-4 14 -8
21 -9 16 -1 -5 -9 -2 -18 5 -9 8 -14 9 -10 2z m24 -60 c-3 -10 -5 -4 -5 12 0
17 2 24 5 18 2 -7 2 -21 0 -30z m19 -28 c-7 -27 -26 -35 -26 -9 0 8 5 12 10 9
6 -3 10 4 10 16 0 12 3 20 6 16 4 -3 4 -18 0 -32z"/>
<path d="M1770 4313 c-8 -3 -18 -11 -22 -17 -5 -8 -13 -7 -28 2 -18 11 -20 10
-20 -8 0 -11 -4 -20 -10 -20 -5 0 -10 -5 -10 -11 0 -5 5 -7 12 -3 8 5 9 0 4
-17 -16 -57 -17 -85 -2 -104 14 -18 15 -18 16 -2 0 9 -4 17 -10 17 -5 0 -10 5
-10 10 0 6 7 5 19 -2 15 -9 21 -29 27 -92 6 -69 8 -76 16 -51 4 17 6 41 4 55
-3 14 -3 19 0 13 8 -19 21 -16 27 6 3 13 -3 25 -16 34 -19 12 -20 17 -8 31 7
8 11 23 7 31 -5 13 -2 14 15 4 19 -9 20 -9 10 10 -7 13 -8 22 -1 26 5 3 10 12
10 18 0 7 -4 6 -10 -3 -13 -20 -13 -4 1 21 7 14 7 24 0 33 -6 7 -8 16 -4 19 7
8 4 8 -17 0z"/>
<path d="M8918 4285 c-3 -22 -3 -60 2 -85 7 -40 8 -41 9 -12 0 19 5 31 11 27
6 -3 10 -1 10 4 0 6 -4 11 -9 11 -6 0 -11 21 -13 48 l-3 47 -7 -40z"/>
<path d="M10338 4253 c7 -3 16 -2 19 1 4 3 -2 6 -13 5 -11 0 -14 -3 -6 -6z"/>
<path d="M10541 4244 c0 -11 3 -14 6 -6 3 7 2 16 -1 19 -3 4 -6 -2 -5 -13z"/>
<path d="M1650 4240 c0 -5 10 -10 23 -10 18 0 19 2 7 10 -19 13 -30 13 -30 0z"/>
<path d="M1811 4213 c0 -23 4 -45 9 -48 11 -7 11 16 0 60 -7 28 -8 28 -9 -12z"/>
<path d="M1010 4210 c-1 -3 -3 -21 -4 -40 -2 -19 -5 -42 -7 -50 -3 -9 5 -16
19 -18 19 -3 23 -8 18 -25 -5 -21 -5 -21 9 -3 19 25 20 110 3 103 -7 -2 -18 5
-25 17 -7 12 -13 19 -13 16z"/>
<path d="M1609 4191 c-20 -16 -22 -22 -11 -33 11 -11 15 -10 23 5 6 9 17 17
24 17 8 0 15 7 15 15 0 21 -23 19 -51 -4z"/>
<path d="M9931 4194 c0 -11 3 -14 6 -6 3 7 2 16 -1 19 -3 4 -6 -2 -5 -13z"/>
<path d="M2852 4170 c0 -14 2 -19 5 -12 2 6 2 18 0 25 -3 6 -5 1 -5 -13z"/>
<path d="M1771 4151 c-8 -5 -9 -11 -3 -15 5 -3 15 1 22 9 14 16 3 20 -19 6z"/>
<path d="M922 4130 c0 -14 2 -19 5 -12 2 6 2 18 0 25 -3 6 -5 1 -5 -13z"/>
<path d="M8615 4118 c-5 -22 -9 -27 -12 -15 -7 27 -23 20 -22 -10 1 -16 -1
-62 -5 -103 -6 -61 -5 -78 6 -88 12 -10 14 -4 10 43 -2 30 -1 67 4 82 l8 28 6
-35 c5 -29 7 -22 14 43 8 83 4 110 -9 55z"/>
<path d="M850 4124 c0 -8 5 -12 10 -9 6 4 8 11 5 16 -9 14 -15 11 -15 -7z"/>
<path d="M2771 4124 c0 -11 3 -14 6 -6 3 7 2 16 -1 19 -3 4 -6 -2 -5 -13z"/>
<path d="M9941 4081 c1 -33 -2 -64 -6 -70 -3 -6 -3 -11 2 -11 4 0 9 -53 11
-117 2 -65 5 -120 8 -122 2 -2 4 79 4 182 0 110 -4 188 -10 192 -6 4 -9 -17
-9 -54z"/>
<path d="M2843 4020 c0 -84 3 -100 16 -100 14 -1 14 -2 -1 -10 -13 -8 -16 -21
-12 -56 5 -54 11 -67 30 -60 11 4 12 2 4 -14 -14 -27 -12 -34 5 -16 8 8 15 21
15 30 0 8 5 18 10 21 6 3 10 -1 10 -9 0 -9 5 -16 10 -16 6 0 10 4 10 8 0 5 6
9 14 9 8 0 12 -6 9 -14 -3 -7 0 -13 6 -13 6 0 11 7 11 15 0 18 39 16 60 -4 13
-13 15 -12 18 2 2 9 12 17 23 17 10 0 19 5 19 11 0 6 -7 9 -15 5 -8 -3 -15 -1
-15 4 0 6 9 10 20 10 11 0 20 -4 20 -10 0 -5 5 -10 10 -10 7 0 7 7 0 21 -7 11
-18 18 -25 15 -8 -3 -17 -1 -20 4 -4 6 0 10 7 10 7 1 4 6 -7 13 -11 7 -20 18
-20 26 0 8 -6 16 -13 19 -9 3 -13 -3 -10 -19 3 -22 0 -24 -50 -26 -30 -1 -60
-4 -67 -7 -8 -3 -17 -1 -20 4 -3 5 -12 7 -20 3 -8 -3 -15 0 -15 6 0 6 6 11 13
11 9 0 12 29 14 108 l2 107 -14 -50 c-11 -40 -14 -43 -11 -15 2 20 -2 43 -9
53 -11 15 -13 1 -12 -83z"/>
<path d="M1635 4090 c3 -5 13 -10 21 -10 8 0 14 5 14 10 0 6 -9 10 -21 10 -11
0 -17 -4 -14 -10z"/>
<path d="M1695 4091 c-4 -7 -3 -16 3 -20 5 -3 12 -15 15 -26 l5 -20 0 20 c1
33 -13 61 -23 46z"/>
<path d="M8635 4058 c-4 -24 -2 -54 4 -68 8 -21 10 -13 10 43 1 76 -5 87 -14
25z"/>
<path d="M1822 4070 c0 -14 2 -19 5 -12 2 6 2 18 0 25 -3 6 -5 1 -5 -13z"/>
<path d="M2770 4037 c0 -31 3 -57 8 -57 8 0 7 99 -2 107 -3 4 -6 -19 -6 -50z"/>
<path d="M10206 4082 c-7 -12 -4 -283 3 -276 9 8 12 39 17 146 5 100 -4 156
-20 130z"/>
<path d="M1139 4063 c-2 -64 -8 -95 -23 -118 -10 -15 -15 -29 -12 -32 8 -8 36
24 36 41 0 8 5 18 12 22 8 5 10 -9 5 -52 -3 -36 -2 -49 3 -34 8 25 8 25 10 -5
2 -21 4 -24 7 -10 2 11 6 31 9 44 7 33 22 15 27 -34 2 -22 4 12 4 75 0 91 -2
103 -7 55 -4 -33 -7 -52 -8 -42 -1 9 -7 17 -13 17 -7 0 -10 17 -8 44 2 24 1
42 -3 39 -5 -2 -8 -16 -8 -31 -1 -24 -2 -25 -11 -9 -6 10 -8 25 -5 33 3 8 1
14 -4 14 -6 0 -10 -8 -11 -17z"/>
<path d="M1770 4031 c0 -25 6 -27 13 -6 4 8 2 17 -3 20 -6 4 -10 -3 -10 -14z"/>
<path d="M1191 4024 c0 -11 3 -14 6 -6 3 7 2 16 -1 19 -3 4 -6 -2 -5 -13z"/>
<path d="M10470 4030 c0 -5 5 -10 10 -10 6 0 10 5 10 10 0 6 -4 10 -10 10 -5
0 -10 -4 -10 -10z"/>
<path d="M1821 4014 c0 -11 3 -14 6 -6 3 7 2 16 -1 19 -3 4 -6 -2 -5 -13z"/>
<path d="M9660 4020 c0 -5 5 -10 11 -10 5 0 7 -5 3 -12 -4 -7 -3 -8 4 -4 6 4
9 13 5 21 -6 17 -23 20 -23 5z"/>
<path d="M1083 4012 c-24 -2 -43 -7 -43 -13 0 -5 4 -9 9 -9 5 0 12 -10 14 -22
l4 -23 8 23 c9 26 14 27 30 5 11 -14 13 -13 19 12 4 15 6 28 4 29 -2 0 -22 0
-45 -2z"/>
<path d="M10475 3990 c-3 -5 -6 -59 -6 -120 0 -60 -4 -112 -7 -114 -17 -10 2
-166 20 -166 5 0 6 5 3 10 -3 6 4 10 15 10 16 0 20 5 16 15 -3 8 0 15 7 16 7
0 3 4 -8 9 l-20 9 20 0 c16 1 17 3 6 10 -9 6 -11 16 -6 27 7 18 8 18 15 -1 13
-31 12 31 -1 79 -8 27 -8 41 0 49 6 6 11 16 11 22 0 5 -5 3 -10 -5 -8 -12 -10
-12 -10 -1 0 8 -8 20 -17 27 -24 17 -26 121 -3 128 12 3 11 4 -2 5 -9 0 -20
-3 -23 -9z"/>
<path d="M9795 3980 c-3 -5 -1 -10 4 -10 6 0 11 5 11 10 0 6 -2 10 -4 10 -3 0
-8 -4 -11 -10z"/>
<path d="M1461 3867 c0 -70 3 -106 9 -102 6 3 10 -2 11 -12 0 -11 3 -13 6 -5
4 10 8 9 17 -4 11 -14 13 -10 14 26 2 44 11 65 19 43 3 -7 10 -13 16 -13 7 1
2 9 -10 19 -16 14 -23 30 -23 55 0 25 -4 36 -15 36 -9 0 -15 9 -16 23 0 21 -1
21 -9 2 -7 -18 -8 -16 -12 10 -3 17 -6 -19 -7 -78z m36 -89 c-3 -7 -5 -2 -5
12 0 14 2 19 5 13 2 -7 2 -19 0 -25z"/>
<path d="M2930 3924 c0 -16 -2 -17 -10 -4 -6 9 -10 10 -10 3 0 -19 20 -26 26
-8 4 9 4 19 0 22 -3 4 -6 -2 -6 -13z"/>
<path d="M863 3914 c-20 -21 -18 -261 2 -280 13 -14 15 -12 15 15 0 17 4 31 9
31 4 0 6 -12 3 -27 -3 -20 -1 -25 6 -18 6 6 13 58 16 117 4 86 3 108 -9 118
-12 10 -15 10 -16 -1 -1 -8 -5 2 -8 22 -5 30 -8 34 -18 23z"/>
<path d="M2955 3910 c-3 -5 -1 -10 4 -10 6 0 11 5 11 10 0 6 -2 10 -4 10 -3 0
-8 -4 -11 -10z"/>
<path d="M9691 3894 c0 -11 3 -14 6 -6 3 7 2 16 -1 19 -3 4 -6 -2 -5 -13z"/>
<path d="M8386 3891 c-4 -7 -5 -15 -2 -18 9 -9 19 4 14 18 -4 11 -6 11 -12 0z"/>
<path d="M8420 3881 c0 -5 -9 -13 -20 -16 -11 -3 -20 -13 -20 -22 0 -9 -6 -13
-15 -9 -8 3 -15 2 -15 -3 0 -11 50 -24 58 -16 4 3 1 9 -6 14 -14 8 20 41 43
41 8 0 15 5 15 10 0 6 -9 10 -20 10 -11 0 -20 -4 -20 -9z"/>
<path d="M8471 3864 c0 -11 3 -14 6 -6 3 7 2 16 -1 19 -3 4 -6 -2 -5 -13z"/>
<path d="M9711 3844 c0 -11 3 -14 6 -6 3 7 2 16 -1 19 -3 4 -6 -2 -5 -13z"/>
<path d="M931 3814 c0 -11 3 -14 6 -6 3 7 2 16 -1 19 -3 4 -6 -2 -5 -13z"/>
<path d="M8310 3819 c0 -5 5 -7 10 -4 6 3 10 8 10 11 0 2 -4 4 -10 4 -5 0 -10
-5 -10 -11z"/>
<path d="M8451 3814 c0 -11 3 -14 6 -6 3 7 2 16 -1 19 -3 4 -6 -2 -5 -13z"/>
<path d="M10562 3770 c0 -14 2 -19 5 -12 2 6 2 18 0 25 -3 6 -5 1 -5 -13z"/>
<path d="M931 3764 c0 -11 3 -14 6 -6 3 7 2 16 -1 19 -3 4 -6 -2 -5 -13z"/>
<path d="M953 3725 c0 -33 2 -45 4 -27 2 18 2 45 0 60 -2 15 -4 0 -4 -33z"/>
<path d="M1530 3773 c0 -4 5 -15 10 -23 7 -11 12 -12 21 -3 8 8 6 14 -10 22
-12 7 -21 8 -21 4z"/>
<path d="M8298 3773 c6 -2 18 -2 25 0 6 3 1 5 -13 5 -14 0 -19 -2 -12 -5z"/>
<path d="M8386 3771 c-3 -5 1 -11 9 -14 9 -4 12 -1 8 9 -6 16 -10 17 -17 5z"/>
<path d="M2990 3760 c-9 -6 -10 -10 -3 -10 6 0 15 5 18 10 8 12 4 12 -15 0z"/>
<path d="M1462 3730 c0 -14 2 -19 5 -12 2 6 2 18 0 25 -3 6 -5 1 -5 -13z"/>
<path d="M1578 3724 c-16 -8 -28 -17 -28 -20 0 -2 12 2 28 9 15 8 34 17 42 20
13 5 13 5 0 6 -8 0 -27 -7 -42 -15z"/>
<path d="M9951 3704 c0 -11 3 -14 6 -6 3 7 2 16 -1 19 -3 4 -6 -2 -5 -13z"/>
<path d="M920 3685 c0 -8 5 -15 10 -15 6 0 10 7 10 15 0 8 -4 15 -10 15 -5 0
-10 -7 -10 -15z"/>
<path d="M1211 3554 c0 -11 3 -14 6 -6 3 7 2 16 -1 19 -3 4 -6 -2 -5 -13z"/>
<path d="M9466 3554 c-5 -14 -4 -15 9 -4 17 14 19 20 6 20 -5 0 -12 -7 -15
-16z"/>
<path d="M10908 3553 c7 -3 16 -2 19 1 4 3 -2 6 -13 5 -11 0 -14 -3 -6 -6z"/>
<path d="M9540 3520 c0 -5 5 -10 11 -10 5 0 7 5 4 10 -3 6 -8 10 -11 10 -2 0
-4 -4 -4 -10z"/>
<path d="M9951 3494 c0 -11 3 -14 6 -6 3 7 2 16 -1 19 -3 4 -6 -2 -5 -13z"/>
<path d="M256 3491 c-4 -7 -5 -15 -2 -18 9 -9 19 4 14 18 -4 11 -6 11 -12 0z"/>
<path d="M288 3474 c0 -16 -1 -40 0 -54 1 -21 0 -22 -6 -6 -9 19 -72 32 -72
14 0 -5 4 -7 9 -3 5 3 12 1 15 -4 3 -5 -5 -12 -19 -15 -37 -9 -35 -69 4 -124
37 -50 56 -64 49 -34 -4 12 -3 22 0 23 4 1 25 2 47 3 22 1 46 5 53 10 7 4 19
2 27 -4 11 -9 15 -9 15 -1 0 6 7 11 15 11 8 0 15 5 15 11 0 6 -8 8 -19 4 -11
-3 -22 -2 -24 2 -3 5 -22 8 -41 8 -20 -1 -36 3 -37 9 0 6 -2 22 -5 36 -2 14
-5 49 -7 78 -4 58 -16 82 -19 36z m-22 -80 c-3 -8 -10 -13 -16 -9 -6 4 -5 13
3 26 13 21 23 8 13 -17z"/>
<path d="M11065 3481 c-3 -5 -1 -12 5 -16 5 -3 10 1 10 9 0 18 -6 21 -15 7z"/>
<path d="M11095 3479 c-4 -5 6 -14 20 -21 21 -10 29 -9 43 5 9 9 12 18 7 18
-6 1 -22 3 -37 5 -15 1 -30 -1 -33 -7z"/>
<path d="M11180 3472 c0 -14 6 -22 16 -22 14 0 15 3 3 18 -7 9 -15 19 -16 21
-2 2 -3 -5 -3 -17z"/>
<path d="M9953 3410 c0 -30 2 -43 4 -27 2 15 2 39 0 55 -2 15 -4 2 -4 -28z"/>
<path d="M11121 3410 c0 -14 -2 -37 -4 -52 -3 -17 -1 -28 6 -28 8 0 8 -3 0
-11 -13 -13 -6 -39 9 -39 5 0 7 4 3 9 -3 5 -1 12 4 15 5 4 11 1 14 -6 2 -7 3
-5 1 6 -1 10 3 27 9 37 9 14 9 24 1 37 -7 10 -8 26 -3 39 6 18 4 21 -16 19
-18 -1 -24 -7 -24 -26z m29 -54 c0 -11 -19 -15 -25 -6 -3 5 1 10 9 10 9 0 16
-2 16 -4z"/>
<path d="M11190 3421 c0 -5 5 -13 10 -16 6 -3 10 -2 10 4 0 5 -4 13 -10 16 -5
3 -10 2 -10 -4z"/>
<path d="M11201 3378 c0 -9 -4 -25 -7 -35 -5 -14 -4 -15 5 -7 7 7 11 22 8 35
-2 13 -5 16 -6 7z"/>
<path d="M9628 3353 c7 -3 16 -2 19 1 4 3 -2 6 -13 5 -11 0 -14 -3 -6 -6z"/>
<path d="M9682 3320 c0 -14 2 -19 5 -12 2 6 2 18 0 25 -3 6 -5 1 -5 -13z"/>
<path d="M955 3300 c-3 -5 -1 -10 4 -10 6 0 11 5 11 10 0 6 -2 10 -4 10 -3 0
-8 -4 -11 -10z"/>
<path d="M11025 3300 c-3 -5 -1 -10 4 -10 6 0 11 5 11 10 0 6 -2 10 -4 10 -3
0 -8 -4 -11 -10z"/>
<path d="M11092 3290 c0 -14 2 -19 5 -12 2 6 2 18 0 25 -3 6 -5 1 -5 -13z"/>
<path d="M11181 3294 c0 -11 3 -14 6 -6 3 7 2 16 -1 19 -3 4 -6 -2 -5 -13z"/>
<path d="M986 3284 c-5 -14 -4 -15 9 -4 17 14 19 20 6 20 -5 0 -12 -7 -15 -16z"/>
<path d="M9760 3290 c0 -5 5 -10 10 -10 6 0 10 5 10 10 0 6 -4 10 -10 10 -5 0
-10 -4 -10 -10z"/>
<path d="M9790 3289 c0 -5 5 -7 10 -4 6 3 10 8 10 11 0 2 -4 4 -10 4 -5 0 -10
-5 -10 -11z"/>
<path d="M9820 3290 c0 -5 5 -10 10 -10 6 0 10 5 10 10 0 6 -4 10 -10 10 -5 0
-10 -4 -10 -10z"/>
<path d="M9715 3280 c-3 -5 1 -10 10 -10 9 0 13 5 10 10 -3 6 -8 10 -10 10 -2
0 -7 -4 -10 -10z"/>
<path d="M9560 3260 c0 -5 5 -10 10 -10 6 0 10 5 10 10 0 6 -4 10 -10 10 -5 0
-10 -4 -10 -10z"/>
<path d="M10483 3153 c-17 -16 -19 -29 -17 -108 2 -49 3 -90 4 -90 2 0 3 -157
1 -202 -1 -50 -27 -61 -34 -15 -3 21 -4 19 -6 -11 -1 -28 3 -37 13 -35 16 3
23 -15 8 -20 -16 -5 -42 27 -35 44 3 9 0 20 -8 25 -12 7 -12 12 -1 30 12 19
12 21 -2 16 -9 -4 -16 -2 -16 3 0 6 -12 10 -26 10 -16 0 -23 4 -18 11 3 6 1
15 -6 19 -6 4 -14 35 -17 69 -3 34 -10 64 -14 67 -12 7 -22 -40 -17 -76 4 -25
2 -28 -14 -19 -27 15 -30 -3 -25 -143 5 -125 12 -162 28 -152 5 3 9 -2 9 -10
0 -9 5 -16 11 -16 5 0 7 -4 4 -10 -3 -5 -3 -15 1 -21 5 -8 9 -8 14 1 6 9 10 6
15 -9 3 -11 11 -21 16 -21 6 0 8 -4 4 -9 -3 -5 5 -13 17 -17 29 -9 38 -22 38
-57 0 -16 4 -26 10 -22 6 3 10 1 10 -5 0 -6 4 -9 9 -6 4 3 7 16 6 28 -1 14 0
15 2 5 3 -12 10 -16 20 -13 11 4 13 2 9 -9 -8 -23 10 -18 26 8 38 60 75 198
48 182 -6 -4 -11 9 -11 32 l-2 38 -7 -35 -7 -35 -2 42 c0 23 -7 44 -13 47 -10
5 -10 7 0 12 10 5 9 9 -5 20 -10 8 -13 13 -6 14 9 0 10 7 3 26 -13 34 -13 197
0 189 6 -4 10 7 10 24 0 33 16 42 23 14 4 -17 5 -17 6 0 0 10 -4 28 -10 39 -9
17 -13 18 -21 7 -7 -11 -8 -9 -6 6 2 11 8 20 15 20 6 0 15 3 19 8 4 4 -2 7
-14 7 -15 0 -22 6 -22 20 0 25 17 27 22 3 2 -12 6 -14 11 -6 4 6 0 19 -9 27
-9 9 -11 16 -4 16 7 0 5 7 -5 16 -9 9 -14 23 -11 30 7 18 3 18 -21 -3z m-216
-315 c-3 -7 -5 -2 -5 12 0 14 2 19 5 13 2 -7 2 -19 0 -25z m109 -85 c-10 -10
-19 5 -10 18 6 11 8 11 12 0 2 -7 1 -15 -2 -18z m24 -273 c0 -5 -4 -10 -10
-10 -5 0 -10 5 -10 10 0 6 5 10 10 10 6 0 10 -4 10 -10z m29 -40 c0 -10 -3 -8
-9 5 -12 27 -12 43 0 25 5 -8 9 -22 9 -30z"/>
<path d="M9035 3150 c3 -5 8 -10 11 -10 2 0 4 5 4 10 0 6 -5 10 -11 10 -5 0
-7 -4 -4 -10z"/>
<path d="M9949 3083 c-2 -166 -4 -198 -9 -203 -3 -3 0 -43 6 -90 11 -81 11
-76 13 133 0 119 -1 217 -4 217 -3 0 -5 -26 -6 -57z"/>
<path d="M8893 3075 c0 -22 2 -30 4 -17 2 12 2 30 0 40 -3 9 -5 -1 -4 -23z"/>
<path d="M10546 3033 c-6 -14 -5 -15 5 -6 7 7 10 15 7 18 -3 3 -9 -2 -12 -12z"/>
<path d="M8890 2920 c-3 -110 -3 -313 0 -450 1 -58 3 -62 13 -40 17 36 37 36
37 0 0 -16 4 -30 8 -30 5 0 7 25 4 56 -3 38 -1 55 6 50 6 -3 13 0 15 6 4 10 8
10 15 -1 8 -11 13 -7 26 17 15 29 15 35 0 79 -9 26 -20 52 -25 58 -5 5 -9 17
-9 27 0 10 -4 18 -10 18 -5 0 -10 9 -10 20 0 11 6 20 13 20 9 0 8 3 -2 9 -8 5
-10 14 -6 21 5 9 4 11 -3 6 -9 -5 -12 12 -14 61 -2 110 -3 117 -11 131 -5 7
-4 12 2 12 6 0 11 5 11 10 0 6 -7 10 -16 10 -14 0 -15 -9 -9 -62 3 -35 9 -72
11 -83 4 -16 3 -17 -5 -5 -6 8 -11 33 -12 55 -1 31 -3 35 -8 15 -4 -17 -7 -4
-12 40 -5 58 -6 53 -9 -50z m17 -52 c-3 -8 -6 -5 -6 6 -1 11 2 17 5 13 3 -3 4
-12 1 -19z m103 -292 c0 -3 -4 -8 -10 -11 -5 -3 -10 -1 -10 4 0 6 5 11 10 11
6 0 10 -2 10 -4z"/>
<path d="M10301 3004 c0 -11 3 -14 6 -6 3 7 2 16 -1 19 -3 4 -6 -2 -5 -13z"/>
<path d="M10207 2986 c-5 -12 -3 -22 5 -28 11 -6 11 -8 0 -8 -10 0 -13 -26
-11 -115 1 -64 6 -118 11 -121 4 -3 8 -11 8 -17 0 -7 -4 -6 -10 3 -7 11 -10 1
-10 -36 0 -37 -6 -59 -21 -78 -12 -15 -19 -29 -16 -32 8 -8 47 47 47 67 0 13
5 17 17 12 9 -4 14 -2 10 3 -3 6 -7 80 -8 165 -1 85 -5 165 -9 179 -5 23 -7
23 -13 6z"/>
<path d="M9592 2885 c0 -16 2 -22 5 -12 2 9 2 23 0 30 -3 6 -5 -1 -5 -18z"/>
<path d="M9592 2760 c0 -14 2 -19 5 -12 2 6 2 18 0 25 -3 6 -5 1 -5 -13z"/>
<path d="M10451 2734 c0 -11 3 -14 6 -6 3 7 2 16 -1 19 -3 4 -6 -2 -5 -13z"/>
<path d="M10556 2617 c3 -10 9 -15 12 -12 3 3 0 11 -7 18 -10 9 -11 8 -5 -6z"/>
<path d="M9251 2604 c0 -11 3 -14 6 -6 3 7 2 16 -1 19 -3 4 -6 -2 -5 -13z"/>
<path d="M10221 2594 c0 -11 3 -14 6 -6 3 7 2 16 -1 19 -3 4 -6 -2 -5 -13z"/>
<path d="M8963 2475 c-8 -22 6 -33 17 -15 13 20 12 30 0 30 -6 0 -13 -7 -17
-15z"/>
<path d="M9250 2447 c0 -44 -2 -47 -32 -55 -18 -5 -37 -7 -43 -3 -5 3 1 8 13
11 13 3 23 8 23 13 -1 4 -1 12 -1 17 0 6 -5 10 -11 10 -5 0 -7 -5 -4 -10 4 -6
-8 -13 -25 -17 -17 -3 -27 -9 -22 -12 6 -4 4 -11 -4 -19 -8 -7 -14 -8 -14 -2
0 23 -26 8 -28 -17 -3 -38 -12 -42 -12 -5 0 18 -4 32 -9 32 -4 0 -8 -12 -7
-27 1 -16 -4 -28 -11 -28 -7 0 -12 -4 -10 -10 1 -5 5 -9 10 -7 4 1 7 -3 7 -8
0 -6 -16 -9 -37 -6 -21 2 -28 1 -15 -1 41 -8 24 -25 -18 -18 -27 5 -40 3 -40
-5 0 -6 -4 -8 -10 -5 -5 3 -10 -1 -10 -9 0 -9 5 -16 10 -16 6 0 10 -7 10 -16
0 -8 -4 -12 -10 -9 -5 3 -10 1 -10 -4 0 -6 -9 -11 -20 -11 -18 0 -20 7 -20 54
0 34 5 56 13 59 7 3 5 6 -5 6 -16 1 -18 -13 -18 -153 0 -85 -5 -167 -10 -182
-9 -24 -9 -25 5 -14 9 7 15 29 15 51 0 22 3 39 8 39 4 0 6 -17 4 -39 -3 -28 0
-40 13 -44 10 -5 14 -3 9 4 -4 6 -2 14 4 18 6 4 12 20 14 36 2 29 3 30 47 25
l46 -5 -42 -3 c-67 -5 -54 -27 17 -28 57 -2 77 7 45 20 -27 10 -17 29 11 22
16 -4 32 -2 42 6 13 11 15 10 9 -4 -5 -15 0 -18 30 -18 29 0 34 3 25 12 -7 7
-12 20 -12 31 0 10 -4 16 -9 12 -5 -3 -12 4 -16 15 -3 11 -11 20 -16 20 -5 0
-9 8 -9 18 1 16 1 16 11 0 12 -21 35 -24 42 -5 3 6 6 1 6 -13 2 -32 11 -45 34
-47 40 -2 42 -3 27 -14 -11 -8 -12 -12 -2 -16 6 -2 12 -21 12 -41 0 -19 2 -33
6 -30 7 7 6 479 -1 486 -3 3 -5 -16 -5 -41z m0 -67 c0 -5 -8 -10 -17 -10 -15
0 -16 2 -3 10 19 12 20 12 20 0z m-130 -78 c0 -12 -3 -12 -15 -2 -8 7 -15 13
-15 15 0 1 7 2 15 2 8 0 15 -7 15 -15z m123 -154 c8 -5 6 -8 -5 -8 -15 0 -18
8 -16 43 1 40 1 40 5 7 3 -19 10 -38 16 -42z m-203 -18 c0 -5 -7 -10 -16 -10
-8 0 -12 5 -9 10 3 6 10 10 16 10 5 0 9 -4 9 -10z m207 -6 c-3 -3 -12 -4 -19
-1 -8 3 -5 6 6 6 11 1 17 -2 13 -5z m-327 -24 c0 -5 -2 -10 -4 -10 -3 0 -8 5
-11 10 -3 6 -1 10 4 10 6 0 11 -4 11 -10z"/>
<path d="M10076 2457 c3 -10 9 -15 12 -12 3 3 0 11 -7 18 -10 9 -11 8 -5 -6z"/>
<path d="M8986 2441 c-4 -5 -2 -12 3 -15 5 -4 12 -2 15 3 4 5 2 12 -3 15 -5 4
-12 2 -15 -3z"/>
<path d="M9040 2425 c0 -8 -4 -15 -10 -15 -16 0 -12 -17 6 -24 8 -3 12 -2 9 4
-3 6 -1 10 4 10 6 0 11 9 11 20 0 11 -4 20 -10 20 -5 0 -10 -7 -10 -15z"/>
<path d="M8922 2410 c0 -14 2 -19 5 -12 2 6 2 18 0 25 -3 6 -5 1 -5 -13z"/>
<path d="M9720 2406 c0 -9 5 -16 10 -16 6 0 10 4 10 9 0 6 -4 13 -10 16 -5 3
-10 -1 -10 -9z"/>
<path d="M10013 2402 c-5 -11 -7 -11 -14 0 -6 10 -11 10 -21 0 -9 -9 -9 -12 0
-12 7 0 12 -4 12 -10 0 -5 -7 -10 -15 -10 -8 0 -22 -12 -31 -26 -15 -22 -15
-27 -3 -35 10 -6 11 -9 1 -9 -7 0 -17 10 -22 23 -9 21 -9 21 -15 2 -3 -12 -19
-26 -35 -33 -38 -17 -48 -49 -24 -71 26 -24 74 -43 74 -30 0 6 7 3 16 -5 19
-19 31 -20 37 -3 4 9 8 8 16 -3 9 -12 11 -12 11 -1 0 10 12 12 50 9 39 -4 50
-2 54 11 3 9 4 4 2 -11 -2 -16 1 -28 5 -28 5 0 9 8 10 18 0 14 2 14 9 -3 l9
-20 0 20 c1 17 3 17 11 5 7 -10 10 -11 10 -2 0 10 4 10 21 0 17 -11 22 -10 34
6 7 10 18 15 24 11 10 -6 81 22 81 32 0 11 -26 29 -38 25 -6 -2 -12 1 -12 8 0
6 -3 9 -7 7 -5 -2 -21 2 -38 10 -30 14 -30 14 -2 8 20 -4 27 -1 27 9 0 10 -6
13 -15 10 -8 -4 -15 -1 -15 5 0 6 -10 10 -22 8 -17 -1 -22 3 -20 16 2 9 -2 17
-8 17 -5 0 -10 9 -10 21 0 13 -5 19 -12 16 -7 -2 -22 -1 -33 4 -17 6 -17 8 -2
8 9 1 17 5 17 9 0 15 -112 10 -117 -6z m133 -41 c-3 -5 -15 -7 -26 -4 -28 7
-25 13 6 13 14 0 23 -4 20 -9z"/>
<path d="M9765 2390 c-3 -6 1 -7 9 -4 18 7 21 14 7 14 -6 0 -13 -4 -16 -10z"/>
<path d="M10370 2380 c0 -5 5 -10 10 -10 6 0 10 -7 10 -17 0 -9 3 -14 6 -10 8
8 -5 47 -17 47 -5 0 -9 -4 -9 -10z"/>
<path d="M9735 2370 c3 -5 8 -10 11 -10 2 0 4 5 4 10 0 6 -5 10 -11 10 -5 0
-7 -4 -4 -10z"/>
<path d="M8890 2360 c0 -5 5 -10 10 -10 6 0 10 5 10 10 0 6 -4 10 -10 10 -5 0
-10 -4 -10 -10z"/>
<path d="M9770 2351 c0 -12 6 -21 16 -21 9 0 14 7 12 17 -5 25 -28 28 -28 4z"/>
<path d="M10337 2330 c3 -11 7 -20 9 -20 2 0 4 9 4 20 0 11 -4 20 -9 20 -5 0
-7 -9 -4 -20z"/>
<path d="M8940 2330 c0 -5 5 -10 11 -10 5 0 7 5 4 10 -3 6 -8 10 -11 10 -2 0
-4 -4 -4 -10z"/>
<path d="M9240 1959 c0 -5 5 -7 10 -4 6 3 10 8 10 11 0 2 -4 4 -10 4 -5 0 -10
-5 -10 -11z"/>
<path d="M8720 1930 c0 -5 5 -10 11 -10 5 0 7 5 4 10 -3 6 -8 10 -11 10 -2 0
-4 -4 -4 -10z"/>
<path d="M8811 1894 c0 -11 3 -14 6 -6 3 7 2 16 -1 19 -3 4 -6 -2 -5 -13z"/>
<path d="M8605 1829 c-4 -6 -5 -13 -2 -16 7 -7 27 6 27 18 0 12 -17 12 -25 -2z"/>
<path d="M8830 1726 c0 -9 5 -16 10 -16 6 0 10 4 10 9 0 6 -4 13 -10 16 -5 3
-10 -1 -10 -9z"/>
<path d="M8871 1724 c0 -11 3 -14 6 -6 3 7 2 16 -1 19 -3 4 -6 -2 -5 -13z"/>
<path d="M8480 1710 c0 -5 5 -10 11 -10 5 0 7 5 4 10 -3 6 -8 10 -11 10 -2 0
-4 -4 -4 -10z"/>
<path d="M8546 1711 c-4 -7 -5 -15 -2 -18 9 -9 19 4 14 18 -4 11 -6 11 -12 0z"/>
</g>
</svg>
